{
.appVersion = "1354";
classes = (
{
automatic = 1;
code = "A B C D E F G H I J K L M N O P Q Q.ss01 Q_u Q_u.ss01 R S T U V W X Y Z a a_macr b c c_t d d_strok e e_macr e_ogon f f_f f_i f_l g h i i_macr i_j j k l l_strok m m_macr n o o_macr p p_bardes p_flour p_macr q q_bardes q_etfin q_ra q_bardes_ra q_strok r s longs longs_longs longs_strok longs_t t t_acute u u_macr v v.ss01 w x y z alpha theta pi phi psi omega omegatonos rum";
name = AllLetters;
}
);
copyright = "Copyright (c) 2019 ANRT. All rights reserved.";
customParameters = (
{
name = glyphOrder;
value = (
.notdef,
emspace,
enspace,
threeperemspace,
fourperemspace,
space,
thinspace,
hairspace,
A,
B,
C,
D,
E,
F,
G,
H,
I,
J,
K,
L,
M,
N,
O,
P,
Q,
Q.ss01,
Q_u,
Q_u.ss01,
R,
S,
T,
U,
V,
W,
X,
Y,
Z,
a,
a_macr,
b,
c,
c_t,
d,
d_strok,
e,
e_macr,
e_ogon,
f,
f_f,
f_i,
f_l,
g,
h,
i,
i_macr,
i_j,
j,
k,
l,
l_strok,
m,
m_macr,
n,
o,
o_macr,
p,
p_bardes,
p_flour,
p_macr,
q,
q_bardes,
q_etfin,
q_ra,
q_bardes_ra,
q_p,
q_strok,
r,
s,
longs,
longs_i,
longs_f,
longs_longs,
longs_strok,
longs_t,
t,
t_acute,
u,
u_macr,
v,
v.ss01,
w,
x,
y,
z,
alpha,
theta,
pi,
phi,
psi,
omega,
omegatonos,
ampersand,
rum,
us,
period,
colon,
question,
hyphen,
bardes,
macr,
ogon,
ra
);
},
{
name = "Use Typo Metrics";
value = 1;
},
{
name = vendorID;
value = ANRT;
},
{
name = unicodeRanges;
value = (
0
);
},
{
name = codePageRanges;
value = (
1252
);
},
{
name = openTypeOS2Type;
value = (
2
);
},
{
name = fsType;
value = (
2
);
},
{
name = description;

glyphs = (
{
color = 3;
glyphname = A;
lastChange = "2020-01-30 15:38:36 +0000";
layers = (
{
anchors = (
{
name = bottom;
position = "{379, 25}";
},
{
name = ogonek;
position = "{682, 34}";
},
{
name = top;
position = "{379, 722}";
}
);
layerId = "4253F1EF-A5B5-4BB5-BE01-BA7FF064837C";
paths = (
{
closed = 1;
nodes = (
"469 621 LINE SMOOTH",
"453 654 OFFCURVE",
"441 676 OFFCURVE",
"436 697 CURVE",
"350 697 LINE",
"340 667 OFFCURVE",
"335 656 OFFCURVE",
"317 622 CURVE SMOOTH",
"57 128 LINE SMOOTH",
"39 97 OFFCURVE",
"22 65 OFFCURVE",
"0 37 CURVE",
"0 0 LINE",
"175 0 LINE",
"175 27 LINE",
"139 33 LINE SMOOTH",
"110 38 OFFCURVE",
"107 62 OFFCURVE",
"126 102 CURVE SMOOTH",
"246 353 LINE",
"480 353 LINE",
"587 96 LINE SMOOTH",
"601 62 OFFCURVE",
"600 47 OFFCURVE",
"574 38 CURVE SMOOTH",
"551 30 LINE",
"551 0 LINE",
"758 0 LINE",
"758 37 LINE",
"743 55 OFFCURVE",
"729 77 OFFCURVE",
"720 96 CURVE SMOOTH"
);
},
{
closed = 1;
nodes = (
"371 616 LINE",
"465 390 LINE",
"263 390 LINE"
);
}
);
width = 758;
}
);
unicode = 0041;
},
{
color = 3;
glyphname = B;
lastChange = "2020-02-10 11:49:38 +0000";
layers = (
{
anchors = (
{
name = bottom;
position = "{308, 25}";
},
{
name = top;
position = "{308, 722}";
}
);
layerId = "4253F1EF-A5B5-4BB5-BE01-BA7FF064837C";
paths = (
{
closed = 1;
nodes = (
"495 423 OFFCURVE",
"558 469 OFFCURVE",
"558 542 CURVE SMOOTH",
"558 659 OFFCURVE",
"441 700 OFFCURVE",
"318 700 CURVE SMOOTH",
"233 700 OFFCURVE",
"156 701 OFFCURVE",
"61 706 CURVE",
"56 668 LINE",
"71 666 LINE SMOOTH",
"92 663 OFFCURVE",
"105 656 OFFCURVE",
"106 628 CURVE SMOOTH",
"112 451 OFFCURVE",
"115 249 OFFCURVE",
"102 71 CURVE SMOOTH",
"100 43 OFFCURVE",
"90 38 OFFCURVE",
"70 35 CURVE SMOOTH",
"50 32 LINE",
"50 -5 LINE",
"139 3 OFFCURVE",
"228 2 OFFCURVE",
"290 2 CURVE SMOOTH",
"463 2 OFFCURVE",
"595 73 OFFCURVE",
"595 209 CURVE SMOOTH",
"595 318 OFFCURVE",
"526 382 OFFCURVE",
"431 400 CURVE"
);
},
{
closed = 1;
nodes = (
"219 646 OFFCURVE",
"252 667 OFFCURVE",
"296 667 CURVE SMOOTH",
"403 667 OFFCURVE",
"441 604 OFFCURVE",
"441 532 CURVE SMOOTH",
"441 454 OFFCURVE",
"372 404 OFFCURVE",
"280 404 CURVE SMOOTH",
"213 404 LINE",
"218 601 LINE SMOOTH"
);
},
{
closed = 1;
nodes = (
"258 44 OFFCURVE",
"230 53 OFFCURVE",
"211 66 CURVE",
"213 368 LINE",
"280 367 LINE SMOOTH",
"404 365 OFFCURVE",
"479 297 OFFCURVE",
"479 202 CURVE SMOOTH",
"479 112 OFFCURVE",
"420 44 OFFCURVE",
"305 44 CURVE SMOOTH"
);
}
);
width = 625;
}
);
leftMetricsKey = H;
unicode = 0042;
},
{
color = 3;
glyphname = C;
lastChange = "2020-02-10 11:49:46 +0000";
layers = (
{
anchors = (
{
name = bottom;
position = "{375, 25}";
},
{
name = top;
position = "{375, 722}";
}
);
layerId = "4253F1EF-A5B5-4BB5-BE01-BA7FF064837C";
paths = (
{
closed = 1;
nodes = (
"438 -9 LINE SMOOTH",
"526 -9 OFFCURVE",
"622 8 OFFCURVE",
"707 34 CURVE",
"710 158 LINE",
"684 160 LINE",
"646 97 OFFCURVE",
"566 31 OFFCURVE",
"438 31 CURVE SMOOTH",
"281 31 OFFCURVE",
"170 167 OFFCURVE",
"170 346 CURVE SMOOTH",
"170 545 OFFCURVE",
"277 674 OFFCURVE",
"439 674 CURVE SMOOTH",
"558 674 OFFCURVE",
"622 640 OFFCURVE",
"688 549 CURVE",
"714 549 LINE",
"714 674 LINE",
"625 682 OFFCURVE",
"541 710 OFFCURVE",
"438 710 CURVE SMOOTH",
"201 710 OFFCURVE",
"45 556 OFFCURVE",
"45 346 CURVE SMOOTH",
"45 130 OFFCURVE",
"187 -9 OFFCURVE",
"437 -9 CURVE SMOOTH"
);
}
);
width = 749;
}
);
leftMetricsKey = O;
unicode = 0043;
},
{
color = 3;
glyphname = D;
lastChange = "2020-02-10 11:51:27 +0000";
layers = (
{
anchors = (
{
name = bottom;
position = "{403, 24}";
},
{
name = center;
position = "{403, 373}";
},
{
name = top;
position = "{403, 722}";
}
);
layerId = "4253F1EF-A5B5-4BB5-BE01-BA7FF064837C";
paths = (
{
closed = 1;
nodes = (
"99 -4 OFFCURVE",
"165 -1 OFFCURVE",
"188 -1 CURVE SMOOTH",
"230 -1 OFFCURVE",
"255 -4 OFFCURVE",
"389 -4 CURVE SMOOTH",
"622 -4 OFFCURVE",
"780 152 OFFCURVE",
"780 355 CURVE SMOOTH",
"780 577 OFFCURVE",
"609 702 OFFCURVE",
"374 702 CURVE SMOOTH",
"60 702 LINE",
"60 672 LINE",
"77 661 OFFCURVE",
"88 639 OFFCURVE",
"88 602 CURVE SMOOTH",
"88 440 OFFCURVE",
"90 363 OFFCURVE",
"86 200 CURVE SMOOTH",
"84 124 OFFCURVE",
"76 45 OFFCURVE",
"65 1 CURVE",
"87 -8 LINE"
);
},
{
closed = 1;
nodes = (
"289 29 OFFCURVE",
"247 33 OFFCURVE",
"201 44 CURVE",
"197 260 OFFCURVE",
"195 466 OFFCURVE",
"197 664 CURVE",
"489 691 OFFCURVE",
"644 588 OFFCURVE",
"649 355 CURVE SMOOTH",
"654 157 OFFCURVE",
"540 29 OFFCURVE",
"368 29 CURVE SMOOTH"
);
}
);
width = 825;
}
);
rightMetricsKey = O;
unicode = 0044;
},
{
color = 3;
glyphname = E;
lastChange = "2020-02-10 11:50:18 +0000";
layers = (
{
anchors = (
{
name = bottom;
position = "{335, 25}";
},
{
name = ogonek;
position = "{599, 34}";
},
{
name = top;
position = "{335, 722}";
},
{
name = topleft;
position = "{23, 722}";
}
);
layerId = "4253F1EF-A5B5-4BB5-BE01-BA7FF064837C";
paths = (
{
closed = 1;
nodes = (
"114 2 OFFCURVE",
"459 6 OFFCURVE",
"582 0 CURVE",
"637 145 LINE",
"616 154 LINE",
"556 87 OFFCURVE",
"514 48 OFFCURVE",
"412 48 CURVE SMOOTH",
"195 48 LINE",
"194 351 LINE",
"488 351 LINE",
"484 167 LINE",
"503 164 LINE",
"576 490 LINE",
"557 491 LINE",
"523 437 LINE SMOOTH",
"508 413 OFFCURVE",
"490 401 OFFCURVE",
"465 401 CURVE SMOOTH",
"193 401 LINE",
"194 661 LINE",
"503 659 LINE SMOOTH",
"553 659 OFFCURVE",
"536 624 OFFCURVE",
"551 574 CURVE",
"575 574 LINE",
"579 616 OFFCURVE",
"586 659 OFFCURVE",
"598 701 CURVE",
"421 699 OFFCURVE",
"238 701 OFFCURVE",
"51 706 CURVE",
"50 669 LINE",
"79 656 OFFCURVE",
"86 656 OFFCURVE",
"87 630 CURVE SMOOTH",
"94 460 OFFCURVE",
"92 234 OFFCURVE",
"86 64 CURVE SMOOTH",
"85 35 OFFCURVE",
"77 35 OFFCURVE",
"52 20 CURVE",
"59 -4 LINE"
);
}
);
width = 657;
}
);
leftMetricsKey = H;
unicode = 0045;
},
{
color = 3;
glyphname = F;
lastChange = "2020-02-10 11:50:34 +0000";
layers = (
{
anchors = (
{
name = bottom;
position = "{276, 25}";
},
{
name = top;
position = "{276, 722}";
}
);
layerId = "4253F1EF-A5B5-4BB5-BE01-BA7FF064837C";
paths = (
{
closed = 1;
nodes = (
"374 0 LINE",
"374 27 LINE",
"242 42 LINE SMOOTH",
"197 47 OFFCURVE",
"193 49 OFFCURVE",
"193 103 CURVE SMOOTH",
"193 350 LINE",
"449 350 LINE SMOOTH",
"478 350 OFFCURVE",
"479 339 OFFCURVE",
"494 308 CURVE",
"512 308 LINE",
"535 465 LINE",
"512 465 LINE",
"485 418 OFFCURVE",
"475 401 OFFCURVE",
"425 401 CURVE SMOOTH",
"192 401 LINE",
"193 658 LINE",
"333 656 LINE SMOOTH",
"466 654 OFFCURVE",
"499 617 OFFCURVE",
"534 564 CURVE",
"558 564 LINE",
"556 696 LINE",
"556 696 OFFCURVE",
"215 698 OFFCURVE",
"216 697 CURVE",
"51 697 LINE",
"50 660 LINE",
"66 653 LINE SMOOTH",
"79 647 OFFCURVE",
"85 640 OFFCURVE",
"86 600 CURVE SMOOTH",
"90 428 OFFCURVE",
"93 252 OFFCURVE",
"85 79 CURVE SMOOTH",
"84 56 OFFCURVE",
"79 40 OFFCURVE",
"61 23 CURVE",
"62 -1 LINE"
);
}
);
width = 578;
}
);
leftMetricsKey = H;
unicode = 0046;
},
{
color = 3;
glyphname = G;
lastChange = "2020-02-10 11:51:41 +0000";
layers = (
{
anchors = (
{
name = bottom;
position = "{385, 25}";
},
{
name = top;
position = "{385, 722}";
}
);
layerId = "4253F1EF-A5B5-4BB5-BE01-BA7FF064837C";
paths = (
{
closed = 1;
nodes = (
"438 -9 LINE SMOOTH",
"558 -9 OFFCURVE",
"678 13 OFFCURVE",
"739 21 CURVE",
"734 116 OFFCURVE",
"735 230 OFFCURVE",
"740 324 CURVE",
"656 322 OFFCURVE",
"572 323 OFFCURVE",
"488 325 CURVE",
"490 298 LINE",
"576 283 LINE SMOOTH",
"621 275 OFFCURVE",
"633 243 OFFCURVE",
"633 208 CURVE SMOOTH",
"633 69 LINE",
"582 52 OFFCURVE",
"520 38 OFFCURVE",
"438 38 CURVE SMOOTH",
"281 38 OFFCURVE",
"170 167 OFFCURVE",
"170 346 CURVE SMOOTH",
"170 545 OFFCURVE",
"277 665 OFFCURVE",
"439 665 CURVE SMOOTH",
"558 665 OFFCURVE",
"628 631 OFFCURVE",
"672 538 CURVE",
"704 538 LINE",
"704 711 LINE",
"676 711 LINE",
"670 698 OFFCURVE",
"660 684 OFFCURVE",
"641 688 CURVE SMOOTH",
"590 699 OFFCURVE",
"524 710 OFFCURVE",
"438 710 CURVE SMOOTH",
"201 710 OFFCURVE",
"45 556 OFFCURVE",
"45 346 CURVE SMOOTH",
"45 130 OFFCURVE",
"201 -9 OFFCURVE",
"437 -9 CURVE SMOOTH"
);
}
);
width = 775;
}
);
leftMetricsKey = O;
unicode = 0047;
},
{
color = 3;
glyphname = H;
lastChange = "2020-01-30 15:38:36 +0000";
layers = (
{
anchors = (
{
name = bottom;
position = "{461, 25}";
},
{
name = center;
position = "{461, 373}";
},
{
name = top;
position = "{461, 722}";
},
{
name = topleft;
position = "{33, 722}";
}
);
layerId = "4253F1EF-A5B5-4BB5-BE01-BA7FF064837C";
paths = (
{
closed = 1;
nodes = (
"358 1 LINE",
"358 33 LINE",
"259 45 LINE SMOOTH",
"229 49 OFFCURVE",
"220 49 OFFCURVE",
"219 77 CURVE SMOOTH",
"216 165 OFFCURVE",
"212 252 OFFCURVE",
"214 349 CURVE",
"708 349 LINE",
"710 252 OFFCURVE",
"707 165 OFFCURVE",
"701 77 CURVE SMOOTH",
"699 49 OFFCURVE",
"691 49 OFFCURVE",
"661 45 CURVE SMOOTH",
"564 33 LINE",
"564 1 LINE",
"872 1 LINE",
"872 33 LINE",
"835 38 LINE SMOOTH",
"823 40 OFFCURVE",
"815 47 OFFCURVE",
"815 70 CURVE SMOOTH",
"815 631 LINE SMOOTH",
"815 654 OFFCURVE",
"823 663 OFFCURVE",
"835 664 CURVE SMOOTH",
"872 668 LINE",
"872 697 LINE",
"564 697 LINE",
"565 665 LINE",
"657 657 LINE SMOOTH",
"696 654 OFFCURVE",
"705 653 OFFCURVE",
"706 618 CURVE SMOOTH",
"708 545 OFFCURVE",
"710 472 OFFCURVE",
"708 399 CURVE",
"214 399 LINE",
"212 472 OFFCURVE",
"216 545 OFFCURVE",
"218 618 CURVE SMOOTH",
"219 652 OFFCURVE",
"226 655 OFFCURVE",
"267 658 CURVE SMOOTH",
"359 665 LINE",
"358 697 LINE",
"50 697 LINE",
"50 668 LINE",
"87 664 LINE SMOOTH",
"99 663 OFFCURVE",
"107 654 OFFCURVE",
"107 631 CURVE SMOOTH",
"107 70 LINE SMOOTH",
"107 47 OFFCURVE",
"99 40 OFFCURVE",
"87 38 CURVE SMOOTH",
"50 33 LINE",
"50 1 LINE"
);
}
);
width = 922;
}
);
unicode = 0048;
},
{
color = 3;
glyphname = I;
lastChange = "2020-02-10 11:52:18 +0000";
layers = (
{
anchors = (
{
name = bottom;
position = "{173, 25}";
},
{
name = ogonek;
position = "{316, 34}";
},
{
name = top;
position = "{173, 722}";
},
{
name = topleft;
position = "{13, 722}";
}
);
layerId = "4253F1EF-A5B5-4BB5-BE01-BA7FF064837C";
paths = (
{
closed = 1;
nodes = (
"296 0 LINE",
"296 25 LINE",
"248 32 LINE SMOOTH",
"231 34 OFFCURVE",
"230 35 OFFCURVE",
"229 74 CURVE SMOOTH",
"224 267 OFFCURVE",
"224 445 OFFCURVE",
"231 588 CURVE SMOOTH",
"234 646 OFFCURVE",
"259 666 OFFCURVE",
"296 674 CURVE",
"296 700 LINE",
"50 700 LINE",
"50 670 LINE",
"97 663 LINE SMOOTH",
"109 661 OFFCURVE",
"113 661 OFFCURVE",
"115 611 CURVE SMOOTH",
"122 430 OFFCURVE",
"123 271 OFFCURVE",
"116 103 CURVE SMOOTH",
"114 57 OFFCURVE",
"97 33 OFFCURVE",
"60 25 CURVE",
"59 0 LINE"
);
}
);
width = 346;
}
);
rightMetricsKey = H;
unicode = 0049;
},
{
color = 6;
glyphname = J;
lastChange = "2020-02-10 11:52:23 +0000";
layers = (
{
layerId = "4253F1EF-A5B5-4BB5-BE01-BA7FF064837C";
paths = (
{
closed = 1;
nodes = (
"107 -129 OFFCURVE",
"197 -37 OFFCURVE",
"197 129 CURVE SMOOTH",
"197 610 LINE SMOOTH",
"197 645 OFFCURVE",
"213 663 OFFCURVE",
"238 673 CURVE",
"238 701 LINE",
"31 701 LINE",
"31 669 LINE",
"77 662 LINE SMOOTH",
"89 660 OFFCURVE",
"95 656 OFFCURVE",
"95 641 CURVE SMOOTH",
"97 101 LINE SMOOTH",
"98 -40 OFFCURVE",
"59 -115 OFFCURVE",
"-25 -215 CURVE",
"6 -231 LINE"
);
}
);
width = 288;
}
);
rightMetricsKey = I;
unicode = 004A;
},
{
color = 3;
glyphname = K;
lastChange = "2020-02-10 11:52:33 +0000";
layers = (
{
layerId = "4253F1EF-A5B5-4BB5-BE01-BA7FF064837C";
paths = (
{
closed = 1;
nodes = (
"459 565 LINE SMOOTH",
"514 609 OFFCURVE",
"570 662 OFFCURVE",
"622 675 CURVE",
"622 700 LINE",
"379 699 LINE",
"380 671 LINE",
"434 655 OFFCURVE",
"453 631 OFFCURVE",
"413 595 CURVE SMOOTH",
"234 430 LINE",
"210 411 LINE",
"211 477 OFFCURVE",
"212 544 OFFCURVE",
"215 616 CURVE SMOOTH",
"217 666 OFFCURVE",
"221 665 OFFCURVE",
"233 668 CURVE SMOOTH",
"262 675 LINE",
"262 700 LINE",
"53 700 LINE",
"53 674 LINE",
"78 668 OFFCURVE",
"97 657 OFFCURVE",
"99 608 CURVE SMOOTH",
"102 545 OFFCURVE",
"105 267 OFFCURVE",
"100 74 CURVE SMOOTH",
"99 35 OFFCURVE",
"98 36 OFFCURVE",
"81 32 CURVE SMOOTH",
"50 25 LINE",
"51 0 LINE",
"261 0 LINE",
"261 19 LINE",
"230 45 OFFCURVE",
"215 57 OFFCURVE",
"214 97 CURVE SMOOTH",
"212 176 OFFCURVE",
"210 254 OFFCURVE",
"210 334 CURVE",
"289 259 OFFCURVE",
"349 189 OFFCURVE",
"426 86 CURVE SMOOTH",
"453 50 OFFCURVE",
"440 35 OFFCURVE",
"398 26 CURVE",
"398 1 LINE",
"622 2 LINE",
"624 26 LINE",
"553 84 OFFCURVE",
"347 324 OFFCURVE",
"265 407 CURVE"
);
}
);
width = 634;
}
);
leftMetricsKey = I;
unicode = 004B;
},
{
color = 3;
glyphname = L;
lastChange = "2020-02-10 11:52:48 +0000";
layers = (
{
anchors = (
{
name = bottom;
position = "{325, 25}";
},
{
name = center;
position = "{325, 373}";
},
{
name = top;
position = "{325, 722}";
},
{
name = topright;
position = "{628, 722}";
}
);
layerId = "4253F1EF-A5B5-4BB5-BE01-BA7FF064837C";
paths = (
{
closed = 1;
nodes = (
"239 2 OFFCURVE",
"411 2 OFFCURVE",
"592 -1 CURVE",
"632 169 LINE",
"606 174 LINE",
"564 99 OFFCURVE",
"494 66 OFFCURVE",
"410 60 CURVE SMOOTH",
"199 46 LINE",
"199 228 OFFCURVE",
"201 462 OFFCURVE",
"210 645 CURVE SMOOTH",
"211 666 OFFCURVE",
"210 665 OFFCURVE",
"279 674 CURVE",
"279 700 LINE",
"67 700 LINE",
"67 674 LINE",
"90 670 OFFCURVE",
"93 670 OFFCURVE",
"93 649 CURVE SMOOTH",
"93 476 OFFCURVE",
"103 248 OFFCURVE",
"95 75 CURVE SMOOTH",
"94 52 OFFCURVE",
"79 33 OFFCURVE",
"50 23 CURVE",
"50 -1 LINE"
);
}
);
width = 642;
}
);
leftMetricsKey = H;
unicode = 004C;
},
{
color = 3;
glyphname = M;
lastChange = "2020-02-10 11:52:54 +0000";
layers = (
{
anchors = (
{
name = bottom;
position = "{518, 25}";
},
{
name = top;
position = "{518, 722}";
}
);
layerId = "4253F1EF-A5B5-4BB5-BE01-BA7FF064837C";
paths = (
{
closed = 1;
nodes = (
"279 0 LINE",
"279 32 LINE",
"190 40 LINE SMOOTH",
"153 43 OFFCURVE",
"137 57 OFFCURVE",
"140 93 CURVE SMOOTH",
"172 539 LINE",
"472 0 LINE",
"510 0 LINE",
"790 543 LINE",
"828 103 LINE SMOOTH",
"832 60 OFFCURVE",
"834 47 OFFCURVE",
"806 43 CURVE SMOOTH",
"726 33 LINE",
"726 0 LINE",
"1006 0 LINE",
"1006 33 LINE",
"975 41 LINE SMOOTH",
"954 46 OFFCURVE",
"949 68 OFFCURVE",
"947 85 CURVE SMOOTH",
"926 260 OFFCURVE",
"907 436 OFFCURVE",
"894 611 CURVE SMOOTH",
"893 624 OFFCURVE",
"891 649 OFFCURVE",
"912 653 CURVE SMOOTH",
"976 664 LINE",
"976 697 LINE",
"689 697 LINE",
"689 664 LINE",
"741 660 LINE SMOOTH",
"772 658 OFFCURVE",
"785 642 OFFCURVE",
"773 619 CURVE SMOOTH",
"521 135 LINE",
"245 625 LINE SMOOTH",
"232 648 OFFCURVE",
"256 656 OFFCURVE",
"274 658 CURVE SMOOTH",
"332 664 LINE",
"332 697 LINE",
"35 696 LINE",
"35 663 LINE",
"98 654 LINE SMOOTH",
"114 652 OFFCURVE",
"122 637 OFFCURVE",
"121 619 CURVE SMOOTH",
"111 443 OFFCURVE",
"100 266 OFFCURVE",
"81 91 CURVE SMOOTH",
"77 54 OFFCURVE",
"74 43 OFFCURVE",
"51 38 CURVE SMOOTH",
"25 32 LINE",
"25 0 LINE"
);
}
);
width = 1031;
}
);
unicode = 004D;
},
{
color = 3;
glyphname = N;
lastChange = "2020-01-30 15:38:36 +0000";
layers = (
{
anchors = (
{
name = bottom;
position = "{439, 25}";
},
{
name = top;
position = "{439, 722}";
}
);
layerId = "4253F1EF-A5B5-4BB5-BE01-BA7FF064837C";
paths = (
{
closed = 1;
nodes = (
"584 670 LINE",
"692 660 LINE SMOOTH",
"729 657 OFFCURVE",
"724 654 OFFCURVE",
"724 634 CURVE SMOOTH",
"718 178 LINE",
"129 700 LINE",
"63 700 LINE",
"63 675 LINE",
"93 648 OFFCURVE",
"96 614 OFFCURVE",
"96 567 CURVE SMOOTH",
"96 88 LINE SMOOTH",
"96 51 OFFCURVE",
"88 42 OFFCURVE",
"67 35 CURVE SMOOTH",
"50 29 LINE",
"50 1 LINE",
"294 1 LINE",
"294 29 LINE",
"205 37 LINE SMOOTH",
"168 40 OFFCURVE",
"155 41 OFFCURVE",
"155 66 CURVE SMOOTH",
"155 536 LINE",
"364 366 OFFCURVE",
"567 171 OFFCURVE",
"763 -11 CURVE",
"787 1 LINE",
"767 99 OFFCURVE",
"782 411 OFFCURVE",
"782 611 CURVE SMOOTH",
"782 648 OFFCURVE",
"789 659 OFFCURVE",
"811 665 CURVE SMOOTH",
"828 670 LINE",
"828 698 LINE",
"584 698 LINE"
);
}
);
width = 878;
}
);
leftMetricsKey = H;
rightMetricsKey = H;
unicode = 004E;
},
{
color = 3;
glyphname = O;
lastChange = "2020-01-30 15:38:36 +0000";
layers = (
{
anchors = (
{
name = bottom;
position = "{413, 25}";
},
{
name = center;
position = "{413, 373}";
},
{
name = ogonek;
position = "{760, 34}";
},
{
name = top;
position = "{413, 722}";
},
{
name = topleft;
position = "{-3, 722}";
},
{
name = topright;
position = "{829, 722}";
}
);
layerId = "4253F1EF-A5B5-4BB5-BE01-BA7FF064837C";
paths = (
{
closed = 1;
nodes = (
"627 -8 OFFCURVE",
"788 137 OFFCURVE",
"788 361 CURVE SMOOTH",
"788 576 OFFCURVE",
"627 709 OFFCURVE",
"412 709 CURVE SMOOTH",
"191 709 OFFCURVE",
"45 546 OFFCURVE",
"45 342 CURVE SMOOTH",
"45 132 OFFCURVE",
"195 -8 OFFCURVE",
"412 -8 CURVE SMOOTH"
);
},
{
closed = 1;
nodes = (
"268 32 OFFCURVE",
"164 193 OFFCURVE",
"164 376 CURVE SMOOTH",
"164 519 OFFCURVE",
"252 669 OFFCURVE",
"396 669 CURVE SMOOTH",
"561 669 OFFCURVE",
"665 529 OFFCURVE",
"665 342 CURVE SMOOTH",
"665 174 OFFCURVE",
"576 32 OFFCURVE",
"428 32 CURVE SMOOTH"
);
}
);
width = 833;
}
);
unicode = 004F;
},
{
color = 3;
glyphname = P;
lastChange = "2020-02-10 11:53:05 +0000";
layers = (
{
anchors = (
{
name = bottom;
position = "{305, 25}";
},
{
name = top;
position = "{305, 722}";
}
);
layerId = "4253F1EF-A5B5-4BB5-BE01-BA7FF064837C";
paths = (
{
closed = 1;
nodes = (
"356 0 LINE",
"356 23 LINE",
"227 48 LINE SMOOTH",
"206 52 OFFCURVE",
"205 56 OFFCURVE",
"204 83 CURVE SMOOTH",
"197 270 OFFCURVE",
"200 473 OFFCURVE",
"204 660 CURVE",
"226 665 OFFCURVE",
"255 666 OFFCURVE",
"285 666 CURVE SMOOTH",
"408 666 OFFCURVE",
"484 608 OFFCURVE",
"484 499 CURVE SMOOTH",
"484 391 OFFCURVE",
"395 308 OFFCURVE",
"247 286 CURVE",
"255 262 LINE",
"442 284 OFFCURVE",
"600 357 OFFCURVE",
"600 501 CURVE SMOOTH",
"600 617 OFFCURVE",
"506 699 OFFCURVE",
"354 698 CURVE SMOOTH",
"61 697 LINE",
"61 670 LINE",
"81 660 OFFCURVE",
"96 643 OFFCURVE",
"97 606 CURVE SMOOTH",
"102 430 OFFCURVE",
"104 242 OFFCURVE",
"96 65 CURVE SMOOTH",
"95 42 OFFCURVE",
"79 36 OFFCURVE",
"67 33 CURVE SMOOTH",
"50 28 LINE",
"50 0 LINE"
);
}
);
width = 615;
}
);
leftMetricsKey = H;
unicode = 0050;
},
{
color = 3;
glyphname = Q;
lastChange = "2020-02-10 11:53:12 +0000";
layers = (
{
layerId = "4253F1EF-A5B5-4BB5-BE01-BA7FF064837C";
paths = (
{
closed = 1;
nodes = (
"930 -17 LINE",
"833 -53 OFFCURVE",
"787 -64 OFFCURVE",
"736 -64 CURVE SMOOTH",
"664 -64 OFFCURVE",
"608 -39 OFFCURVE",
"570 12 CURVE",
"724 58 OFFCURVE",
"829 185 OFFCURVE",
"829 361 CURVE SMOOTH",
"829 575 OFFCURVE",
"660 708 OFFCURVE",
"436 708 CURVE SMOOTH",
"205 708 OFFCURVE",
"45 545 OFFCURVE",
"45 342 CURVE SMOOTH",
"45 134 OFFCURVE",
"206 -3 OFFCURVE",
"426 -7 CURVE",
"482 -56 OFFCURVE",
"549 -116 OFFCURVE",
"693 -116 CURVE SMOOTH",
"773 -116 OFFCURVE",
"851 -88 OFFCURVE",
"943 -38 CURVE"
);
},
{
closed = 1;
nodes = (
"158 525 OFFCURVE",
"269 659 OFFCURVE",
"421 659 CURVE SMOOTH",
"590 659 OFFCURVE",
"717 513 OFFCURVE",
"717 342 CURVE SMOOTH",
"717 179 OFFCURVE",
"601 47 OFFCURVE",
"451 47 CURVE SMOOTH",
"279 47 OFFCURVE",
"158 183 OFFCURVE",
"158 363 CURVE SMOOTH"
);
}
);
width = 948;
}
);
leftMetricsKey = O;
unicode = 0051;
},
{
color = 3;
glyphname = Q.ss01;
lastChange = "2020-02-10 11:53:25 +0000";
layers = (
{
layerId = "4253F1EF-A5B5-4BB5-BE01-BA7FF064837C";
paths = (
{
closed = 1;
nodes = (
"1372 -138 LINE",
"1264 -177 OFFCURVE",
"1172 -185 OFFCURVE",
"1061 -185 CURVE SMOOTH",
"841 -185 OFFCURVE",
"710 -111 OFFCURVE",
"606 25 CURVE",
"740 79 OFFCURVE",
"829 199 OFFCURVE",
"829 361 CURVE SMOOTH",
"829 575 OFFCURVE",
"660 708 OFFCURVE",
"436 708 CURVE SMOOTH",
"205 708 OFFCURVE",
"45 545 OFFCURVE",
"45 342 CURVE SMOOTH",
"45 131 OFFCURVE",
"211 -7 OFFCURVE",
"436 -7 CURVE SMOOTH",
"445 -7 OFFCURVE",
"454 -7 OFFCURVE",
"463 -6 CURVE",
"623 -162 OFFCURVE",
"810 -235 OFFCURVE",
"1025 -235 CURVE SMOOTH",
"1160 -235 OFFCURVE",
"1271 -209 OFFCURVE",
"1380 -163 CURVE"
);
},
{
closed = 1;
nodes = (
"158 525 OFFCURVE",
"269 659 OFFCURVE",
"421 659 CURVE SMOOTH",
"590 659 OFFCURVE",
"717 513 OFFCURVE",
"717 342 CURVE SMOOTH",
"717 179 OFFCURVE",
"601 47 OFFCURVE",
"451 47 CURVE SMOOTH",
"279 47 OFFCURVE",
"158 183 OFFCURVE",
"158 363 CURVE SMOOTH"
);
}
);
width = 900;
}
);
leftMetricsKey = O;
},
{
color = 3;
glyphname = Q_u;
lastChange = "2020-02-10 11:54:30 +0000";
layers = (
{
layerId = "4253F1EF-A5B5-4BB5-BE01-BA7FF064837C";
paths = (
{
closed = 1;
nodes = (
"1377 -138 LINE",
"1269 -177 OFFCURVE",
"1177 -185 OFFCURVE",
"1066 -185 CURVE SMOOTH",
"845 -185 OFFCURVE",
"714 -110 OFFCURVE",
"610 26 CURVE",
"742 81 OFFCURVE",
"829 201 OFFCURVE",
"829 361 CURVE SMOOTH",
"829 575 OFFCURVE",
"660 708 OFFCURVE",
"436 708 CURVE SMOOTH",
"205 708 OFFCURVE",
"45 545 OFFCURVE",
"45 342 CURVE SMOOTH",
"45 131 OFFCURVE",
"211 -7 OFFCURVE",
"436 -7 CURVE SMOOTH",
"447 -7 OFFCURVE",
"458 -7 OFFCURVE",
"468 -6 CURVE",
"628 -161 OFFCURVE",
"815 -235 OFFCURVE",
"1030 -235 CURVE SMOOTH",
"1165 -235 OFFCURVE",
"1276 -209 OFFCURVE",
"1385 -163 CURVE"
);
},
{
closed = 1;
nodes = (
"158 525 OFFCURVE",
"269 659 OFFCURVE",
"421 659 CURVE SMOOTH",
"590 659 OFFCURVE",
"717 513 OFFCURVE",
"717 342 CURVE SMOOTH",
"717 179 OFFCURVE",
"601 47 OFFCURVE",
"451 47 CURVE SMOOTH",
"279 47 OFFCURVE",
"158 183 OFFCURVE",
"158 363 CURVE SMOOTH"
);
},
{
closed = 1;
nodes = (
"975 117 LINE SMOOTH",
"975 42 OFFCURVE",
"1001 -11 OFFCURVE",
"1091 -11 CURVE SMOOTH",
"1158 -11 OFFCURVE",
"1215 42 OFFCURVE",
"1253 61 CURVE",
"1257 -8 LINE",
"1269 -13 LINE",
"1300 -1 OFFCURVE",
"1334 22 OFFCURVE",
"1370 38 CURVE",
"1370 68 LINE",
"1338 65 OFFCURVE",
"1330 68 OFFCURVE",
"1330 96 CURVE SMOOTH",
"1330 311 LINE SMOOTH",
"1330 339 OFFCURVE",
"1333 372 OFFCURVE",
"1337 399 CURVE",
"1329 405 LINE",
"1276 387 OFFCURVE",
"1231 372 OFFCURVE",
"1176 363 CURVE",
"1176 337 LINE",
"1221 326 LINE SMOOTH",
"1243 321 OFFCURVE",
"1250 315 OFFCURVE",
"1250 291 CURVE SMOOTH",
"1250 92 LINE",
"1214 69 OFFCURVE",
"1180 57 OFFCURVE",
"1136 57 CURVE SMOOTH",
"1076 57 OFFCURVE",
"1055 93 OFFCURVE",
"1055 147 CURVE SMOOTH",
"1055 289 LINE SMOOTH",
"1055 317 OFFCURVE",
"1058 364 OFFCURVE",
"1063 401 CURVE",
"1052 407 LINE",
"1017 391 OFFCURVE",
"970 375 OFFCURVE",
"924 363 CURVE",
"924 338 LINE",
"954 335 OFFCURVE",
"975 317 OFFCURVE",
"975 284 CURVE SMOOTH"
);
}
);
width = 1415;
}
);
leftMetricsKey = O;
rightMetricsKey = u;
},
{
color = 3;
glyphname = Q_u.ss01;
lastChange = "2020-02-10 11:54:33 +0000";
layers = (
{
layerId = "4253F1EF-A5B5-4BB5-BE01-BA7FF064837C";
paths = (
{
closed = 1;
nodes = (
"739 77 OFFCURVE",
"829 198 OFFCURVE",
"829 361 CURVE SMOOTH",
"829 575 OFFCURVE",
"660 708 OFFCURVE",
"436 708 CURVE SMOOTH",
"205 708 OFFCURVE",
"45 545 OFFCURVE",
"45 342 CURVE SMOOTH",
"45 131 OFFCURVE",
"211 -7 OFFCURVE",
"436 -7 CURVE SMOOTH",
"444 -7 OFFCURVE",
"452 -7 OFFCURVE",
"460 -6 CURVE",
"602 -126 OFFCURVE",
"782 -179 OFFCURVE",
"985 -214 CURVE",
"993 -189 LINE",
"837 -164 OFFCURVE",
"699 -99 OFFCURVE",
"603 23 CURVE"
);
},
{
closed = 1;
nodes = (
"158 525 OFFCURVE",
"269 659 OFFCURVE",
"421 659 CURVE SMOOTH",
"590 659 OFFCURVE",
"717 513 OFFCURVE",
"717 342 CURVE SMOOTH",
"717 179 OFFCURVE",
"601 47 OFFCURVE",
"451 47 CURVE SMOOTH",
"279 47 OFFCURVE",
"158 183 OFFCURVE",
"158 363 CURVE SMOOTH"
);
},
{
closed = 1;
nodes = (
"1340 311 LINE SMOOTH",
"1340 339 OFFCURVE",
"1343 372 OFFCURVE",
"1347 399 CURVE",
"1339 405 LINE",
"1286 387 OFFCURVE",
"1241 372 OFFCURVE",
"1186 363 CURVE",
"1186 337 LINE",
"1231 326 LINE SMOOTH",
"1253 321 OFFCURVE",
"1260 315 OFFCURVE",
"1260 291 CURVE SMOOTH",
"1260 92 LINE",
"1224 69 OFFCURVE",
"1190 57 OFFCURVE",
"1146 57 CURVE SMOOTH",
"1086 57 OFFCURVE",
"1065 93 OFFCURVE",
"1065 147 CURVE SMOOTH",
"1065 289 LINE SMOOTH",
"1065 317 OFFCURVE",
"1068 364 OFFCURVE",
"1073 401 CURVE",
"1062 407 LINE",
"1027 391 OFFCURVE",
"980 375 OFFCURVE",
"934 363 CURVE",
"934 338 LINE",
"964 335 OFFCURVE",
"985 317 OFFCURVE",
"985 284 CURVE SMOOTH",
"985 117 LINE SMOOTH",
"985 42 OFFCURVE",
"1011 -11 OFFCURVE",
"1101 -11 CURVE SMOOTH",
"1168 -11 OFFCURVE",
"1225 42 OFFCURVE",
"1263 61 CURVE",
"1267 -8 LINE",
"1279 -13 LINE",
"1310 -1 OFFCURVE",
"1344 22 OFFCURVE",
"1380 38 CURVE",
"1380 68 LINE",
"1348 65 OFFCURVE",
"1340 68 OFFCURVE",
"1340 96 CURVE SMOOTH"
);
}
);
width = 1410;
}
);
leftMetricsKey = O;
rightMetricsKey = u;
},
{
color = 3;
glyphname = R;
lastChange = "2020-02-10 11:54:42 +0000";
layers = (
{
anchors = (
{
name = bottom;
position = "{384, 25}";
},
{
name = top;
position = "{384, 722}";
}
);
layerId = "4253F1EF-A5B5-4BB5-BE01-BA7FF064837C";
paths = (
{
closed = 1;
nodes = (
"801 19 LINE",
"714 35 OFFCURVE",
"656 72 OFFCURVE",
"601 112 CURVE SMOOTH",
"552 148 OFFCURVE",
"486 234 OFFCURVE",
"444 317 CURVE",
"529 358 OFFCURVE",
"580 408 OFFCURVE",
"582 505 CURVE SMOOTH",
"584 618 OFFCURVE",
"496 697 OFFCURVE",
"326 697 CURVE SMOOTH",
"51 697 LINE",
"50 670 LINE",
"80 657 OFFCURVE",
"85 657 OFFCURVE",
"86 611 CURVE SMOOTH",
"90 436 OFFCURVE",
"88 252 OFFCURVE",
"80 74 CURVE SMOOTH",
"79 51 OFFCURVE",
"70 38 OFFCURVE",
"53 28 CURVE",
"53 0 LINE",
"316 0 LINE",
"316 23 LINE",
"214 45 LINE SMOOTH",
"194 49 OFFCURVE",
"192 49 OFFCURVE",
"192 76 CURVE SMOOTH",
"192 303 LINE",
"323 302 LINE",
"369 238 OFFCURVE",
"422 124 OFFCURVE",
"502 68 CURVE SMOOTH",
"545 38 OFFCURVE",
"679 -3 OFFCURVE",
"791 -9 CURVE"
);
},
{
closed = 1;
nodes = (
"192 662 LINE",
"267 663 LINE SMOOTH",
"387 665 OFFCURVE",
"466 588 OFFCURVE",
"466 496 CURVE SMOOTH",
"466 407 OFFCURVE",
"407 342 OFFCURVE",
"288 340 CURVE SMOOTH",
"192 338 LINE"
);
}
);
width = 801;
}
);
leftMetricsKey = H;
unicode = 0052;
},
{
color = 3;
glyphname = S;
lastChange = "2020-01-30 15:38:37 +0000";
layers = (
{
anchors = (
{
name = bottom;
position = "{288, 25}";
},
{
name = top;
position = "{288, 722}";
}
);
layerId = "4253F1EF-A5B5-4BB5-BE01-BA7FF064837C";
paths = (
{
closed = 1;
nodes = (
"434 -11 OFFCURVE",
"536 61 OFFCURVE",
"536 201 CURVE SMOOTH",
"536 292 OFFCURVE",
"462 355 OFFCURVE",
"339 409 CURVE SMOOTH",
"236 454 OFFCURVE",
"159 488 OFFCURVE",
"159 567 CURVE SMOOTH",
"159 631 OFFCURVE",
"213 666 OFFCURVE",
"280 666 CURVE SMOOTH",
"392 666 OFFCURVE",
"430 611 OFFCURVE",
"456 557 CURVE",
"482 562 LINE",
"457 707 LINE",
"457 704 OFFCURVE",
"396 709 OFFCURVE",
"315 709 CURVE SMOOTH",
"150 709 OFFCURVE",
"50 628 OFFCURVE",
"50 518 CURVE SMOOTH",
"50 389 OFFCURVE",
"159 360 OFFCURVE",
"252 323 CURVE SMOOTH",
"351 284 OFFCURVE",
"430 232 OFFCURVE",
"430 154 CURVE SMOOTH",
"430 77 OFFCURVE",
"358 24 OFFCURVE",
"280 24 CURVE SMOOTH",
"180 24 OFFCURVE",
"113 94 OFFCURVE",
"84 186 CURVE",
"53 183 LINE",
"87 20 LINE",
"87 20 OFFCURVE",
"170 -11 OFFCURVE",
"263 -11 CURVE SMOOTH"
);
}
);
width = 586;
}
);
unicode = 0053;
},
{
color = 3;
glyphname = T;
lastChange = "2020-01-30 15:38:37 +0000";
layers = (
{
anchors = (
{
name = bottom;
position = "{365, 25}";
},
{
name = center;
position = "{365, 373}";
},
{
name = top;
position = "{365, 722}";
}
);
layerId = "4253F1EF-A5B5-4BB5-BE01-BA7FF064837C";
paths = (
{
closed = 1;
nodes = (
"541 0 LINE",
"541 30 LINE",
"445 39 LINE SMOOTH",
"432 40 OFFCURVE",
"433 43 OFFCURVE",
"432 66 CURVE SMOOTH",
"424 256 OFFCURVE",
"427 471 OFFCURVE",
"427 651 CURVE",
"636 645 LINE SMOOTH",
"662 644 OFFCURVE",
"686 639 OFFCURVE",
"694 612 CURVE SMOOTH",
"711 557 LINE",
"737 557 LINE",
"724 722 LINE",
"697 722 LINE",
"690 707 OFFCURVE",
"677 700 OFFCURVE",
"646 700 CURVE SMOOTH",
"108 700 LINE SMOOTH",
"88 700 OFFCURVE",
"75 707 OFFCURVE",
"67 722 CURVE",
"41 722 LINE",
"5 562 LINE",
"35 557 LINE",
"55 612 LINE SMOOTH",
"65 639 OFFCURVE",
"86 644 OFFCURVE",
"112 645 CURVE SMOOTH",
"317 651 LINE",
"318 471 OFFCURVE",
"320 256 OFFCURVE",
"312 66 CURVE SMOOTH",
"311 43 OFFCURVE",
"310 40 OFFCURVE",
"297 39 CURVE SMOOTH",
"208 30 LINE",
"208 0 LINE"
);
}
);
width = 742;
}
);
unicode = 0054;
},
{
color = 6;
glyphname = U;
lastChange = "2020-02-10 11:54:53 +0000";
layers = (
{
layerId = "4253F1EF-A5B5-4BB5-BE01-BA7FF064837C";
paths = (
{
closed = 1;
nodes = (
"636 -11 OFFCURVE",
"721 105 OFFCURVE",
"725 299 CURVE SMOOTH",
"732 621 LINE SMOOTH",
"732 642 OFFCURVE",
"743 661 OFFCURVE",
"766 666 CURVE SMOOTH",
"806 674 LINE",
"806 699 LINE",
"547 699 LINE",
"547 674 LINE",
"641 666 LINE SMOOTH",
"657 665 OFFCURVE",
"658 662 OFFCURVE",
"658 643 CURVE SMOOTH",
"657 250 LINE SMOOTH",
"657 126 OFFCURVE",
"576 45 OFFCURVE",
"445 45 CURVE SMOOTH",
"315 45 OFFCURVE",
"229 103 OFFCURVE",
"229 250 CURVE SMOOTH",
"229 611 LINE SMOOTH",
"229 646 OFFCURVE",
"248 665 OFFCURVE",
"269 668 CURVE SMOOTH",
"309 674 LINE",
"309 699 LINE",
"50 699 LINE",
"50 674 LINE",
"99 667 LINE SMOOTH",
"118 664 OFFCURVE",
"117 665 OFFCURVE",
"117 636 CURVE SMOOTH",
"120 299 LINE SMOOTH",
"122 93 OFFCURVE",
"214 -11 OFFCURVE",
"443 -11 CURVE SMOOTH"
);
}
);
width = 856;
}
);
leftMetricsKey = I;
rightMetricsKey = I;
unicode = 0055;
},
{
color = 3;
glyphname = V;
lastChange = "2020-01-30 15:38:37 +0000";
layers = (
{
anchors = (
{
name = bottom;
position = "{384, 25}";
},
{
name = top;
position = "{384, 722}";
}
);
layerId = "4253F1EF-A5B5-4BB5-BE01-BA7FF064837C";
paths = (
{
closed = 1;
nodes = (
"402 -11 LINE",
"728 632 LINE SMOOTH",
"737 649 OFFCURVE",
"743 662 OFFCURVE",
"763 672 CURVE",
"763 700 LINE",
"556 700 LINE",
"556 672 LINE",
"634 668 LINE SMOOTH",
"662 667 OFFCURVE",
"678 661 OFFCURVE",
"667 639 CURVE SMOOTH",
"425 143 LINE",
"177 641 LINE SMOOTH",
"169 657 OFFCURVE",
"179 667 OFFCURVE",
"200 668 CURVE SMOOTH",
"273 672 LINE",
"273 700 LINE",
"5 700 LINE",
"5 675 LINE",
"26 672 OFFCURVE",
"39 660 OFFCURVE",
"47 644 CURVE SMOOTH",
"370 -11 LINE"
);
}
);
width = 768;
}
);
unicode = 0056;
},
{
color = 6;
glyphname = W;
lastChange = "2020-01-30 15:38:37 +0000";
layers = (
{
layerId = "4253F1EF-A5B5-4BB5-BE01-BA7FF064837C";
paths = (
{
closed = 1;
nodes = (
"327 -11 LINE",
"525 505 LINE",
"724 -11 LINE",
"761 -11 LINE",
"995 627 LINE SMOOTH",
"1001 644 OFFCURVE",
"1011 657 OFFCURVE",
"1030 667 CURVE",
"1030 700 LINE",
"831 700 LINE",
"831 667 LINE",
"901 663 LINE SMOOTH",
"929 661 OFFCURVE",
"943 656 OFFCURVE",
"935 634 CURVE SMOOTH",
"769 167 LINE",
"569 700 LINE",
"532 700 LINE",
"339 167 LINE",
"167 636 LINE SMOOTH",
"161 652 OFFCURVE",
"169 662 OFFCURVE",
"191 663 CURVE SMOOTH",
"259 667 LINE",
"259 700 LINE",
"5 700 LINE",
"5 667 LINE",
"26 665 OFFCURVE",
"41 655 OFFCURVE",
"47 639 CURVE SMOOTH",
"290 -11 LINE"
);
}
);
width = 1035;
}
);
unicode = 0057;
},
{
color = 3;
glyphname = X;
lastChange = "2020-01-30 15:38:37 +0000";
layers = (
{
anchors = (
{
name = bottom;
position = "{337, 25}";
},
{
name = top;
position = "{337, 722}";
}
);
layerId = "4253F1EF-A5B5-4BB5-BE01-BA7FF064837C";
paths = (
{
closed = 1;
nodes = (
"669 672 LINE",
"669 700 LINE",
"450 700 LINE",
"450 675 LINE",
"475 669 LINE SMOOTH",
"511 660 OFFCURVE",
"536 646 OFFCURVE",
"500 598 CURVE SMOOTH",
"360 410 LINE",
"198 626 LINE SMOOTH",
"184 645 OFFCURVE",
"193 661 OFFCURVE",
"208 665 CURVE SMOOTH",
"243 675 LINE",
"243 700 LINE",
"5 700 LINE",
"5 672 LINE",
"24 666 OFFCURVE",
"46 649 OFFCURVE",
"68 620 CURVE SMOOTH",
"278 335 LINE",
"49 71 LINE SMOOTH",
"37 57 OFFCURVE",
"24 44 OFFCURVE",
"5 31 CURVE",
"5 0 LINE",
"173 0 LINE",
"173 28 LINE",
"134 39 OFFCURVE",
"118 46 OFFCURVE",
"132 65 CURVE SMOOTH",
"305 299 LINE",
"469 75 LINE SMOOTH",
"488 49 OFFCURVE",
"476 42 OFFCURVE",
"454 34 CURVE SMOOTH",
"428 24 LINE",
"428 0 LINE",
"668 0 LINE",
"668 27 LINE",
"655 30 OFFCURVE",
"630 50 OFFCURVE",
"614 71 CURVE SMOOTH",
"386 376 LINE",
"582 611 LINE SMOOTH",
"606 639 OFFCURVE",
"630 652 OFFCURVE",
"648 661 CURVE SMOOTH"
);
}
);
width = 674;
}
);
unicode = 0058;
},
{
color = 3;
glyphname = Y;
lastChange = "2020-01-30 15:38:37 +0000";
layers = (
{
layerId = "4253F1EF-A5B5-4BB5-BE01-BA7FF064837C";
paths = (
{
closed = 1;
nodes = (
"486 0 LINE",
"486 28 LINE",
"404 38 LINE SMOOTH",
"390 40 OFFCURVE",
"384 48 OFFCURVE",
"384 62 CURVE SMOOTH",
"386 300 LINE",
"561 626 LINE SMOOTH",
"569 641 OFFCURVE",
"590 656 OFFCURVE",
"618 662 CURVE SMOOTH",
"659 671 LINE",
"659 700 LINE",
"412 700 LINE",
"412 671 LINE",
"461 664 LINE SMOOTH",
"488 660 OFFCURVE",
"500 644 OFFCURVE",
"488 619 CURVE SMOOTH",
"362 351 LINE",
"219 616 LINE SMOOTH",
"207 638 OFFCURVE",
"216 655 OFFCURVE",
"235 660 CURVE SMOOTH",
"280 671 LINE",
"280 700 LINE",
"5 700 LINE",
"5 671 LINE",
"28 662 LINE SMOOTH",
"71 645 OFFCURVE",
"92 631 OFFCURVE",
"108 601 CURVE SMOOTH",
"276 291 LINE",
"273 62 LINE SMOOTH",
"273 48 OFFCURVE",
"265 40 OFFCURVE",
"251 38 CURVE SMOOTH",
"170 28 LINE",
"170 0 LINE"
);
}
);
width = 664;
}
);
unicode = 0059;
},
{
color = 3;
glyphname = Z;
lastChange = "2020-02-10 11:55:00 +0000";
layers = (
{
anchors = (
{
name = bottom;
position = "{352, 25}";
},
{
name = top;
position = "{352, 722}";
}
);
layerId = "4253F1EF-A5B5-4BB5-BE01-BA7FF064837C";
paths = (
{
closed = 1;
nodes = (
"59 -4 OFFCURVE",
"72 0 OFFCURVE",
"88 0 CURVE SMOOTH",
"274 0 OFFCURVE",
"461 0 OFFCURVE",
"647 -10 CURVE",
"698 134 LINE",
"669 139 LINE",
"639 91 OFFCURVE",
"582 47 OFFCURVE",
"470 47 CURVE SMOOTH",
"175 46 LINE",
"569 586 LINE SMOOTH",
"589 612 OFFCURVE",
"616 638 OFFCURVE",
"649 662 CURVE",
"637 706 LINE",
"595 701 OFFCURVE",
"555 700 OFFCURVE",
"510 700 CURVE SMOOTH",
"62 700 LINE",
"5 610 LINE",
"31 597 LINE",
"83 643 OFFCURVE",
"97 647 OFFCURVE",
"160 648 CURVE SMOOTH",
"480 653 LINE",
"12 15 LINE",
"45 -10 LINE"
);
}
);
width = 703;
}
);
unicode = 005A;
},
{
color = 4;
glyphname = a;
lastChange = "2020-02-10 11:54:01 +0000";
layers = (
{
anchors = (
{
name = bottom;
position = "{167, 25}";
},
{
name = ogonek;
position = "{307, 34}";
},
{
name = top;
position = "{167, 397}";
}
);
layerId = "4253F1EF-A5B5-4BB5-BE01-BA7FF064837C";
paths = (
{
closed = 1;
nodes = (
"274 144 OFFCURVE",
"277 220 OFFCURVE",
"277 283 CURVE SMOOTH",
"277 377 OFFCURVE",
"234 400 OFFCURVE",
"158 400 CURVE SMOOTH",
"93 400 OFFCURVE",
"28 354 OFFCURVE",
"28 332 CURVE SMOOTH",
"28 322 OFFCURVE",
"41 309 OFFCURVE",
"57 309 CURVE SMOOTH",
"77 309 OFFCURVE",
"75 319 OFFCURVE",
"88 339 CURVE SMOOTH",
"95 350 OFFCURVE",
"109 359 OFFCURVE",
"128 359 CURVE SMOOTH",
"167 359 OFFCURVE",
"198 329 OFFCURVE",
"196 269 CURVE SMOOTH",
"196 253 OFFCURVE",
"195 237 OFFCURVE",
"195 221 CURVE",
"90 157 LINE SMOOTH",
"48 132 OFFCURVE",
"19 118 OFFCURVE",
"20 69 CURVE SMOOTH",
"21 19 OFFCURVE",
"54 -10 OFFCURVE",
"95 -10 CURVE SMOOTH",
"114 -10 OFFCURVE",
"156 19 OFFCURVE",
"197 48 CURVE",
"211 -8 LINE",
"217 -11 LINE",
"319 28 LINE",
"319 52 LINE",
"289 49 OFFCURVE",
"271 54 OFFCURVE",
"272 80 CURVE SMOOTH"
);
},
{
closed = 1;
nodes = (
"181 59 OFFCURVE",
"158 46 OFFCURVE",
"139 46 CURVE SMOOTH",
"111 46 OFFCURVE",
"92 60 OFFCURVE",
"92 92 CURVE SMOOTH",
"92 123 OFFCURVE",
"100 137 OFFCURVE",
"194 188 CURVE",
"193 150 OFFCURVE",
"191 112 OFFCURVE",
"190 74 CURVE"
);
}
);
width = 344;
}
);
unicode = 0061;
},
{
color = 4;
glyphname = a_macr;
lastChange = "2020-02-10 11:57:01 +0000";
layers = (
{
anchors = (
{
name = bottom;
position = "{167, 25}";
},
{
name = ogonek;
position = "{307, 34}";
},
{
name = top;
position = "{167, 397}";
}
);
layerId = "4253F1EF-A5B5-4BB5-BE01-BA7FF064837C";
paths = (
{
closed = 1;
nodes = (
"149 533 OFFCURVE",
"216 512 OFFCURVE",
"255 507 CURVE",
"276 519 OFFCURVE",
"319 571 OFFCURVE",
"333 594 CURVE",
"310 603 LINE",
"298 598 OFFCURVE",
"284 582 OFFCURVE",
"263 582 CURVE SMOOTH",
"231 582 OFFCURVE",
"175 605 OFFCURVE",
"135 605 CURVE",
"112 595 OFFCURVE",
"61 542 OFFCURVE",
"47 519 CURVE",
"76 510 LINE",
"90 525 OFFCURVE",
"96 533 OFFCURVE",
"118 533 CURVE SMOOTH"
);
},
{
closed = 1;
nodes = (
"274 144 OFFCURVE",
"277 220 OFFCURVE",
"277 283 CURVE SMOOTH",
"277 377 OFFCURVE",
"234 400 OFFCURVE",
"158 400 CURVE SMOOTH",
"93 400 OFFCURVE",
"28 354 OFFCURVE",
"28 332 CURVE SMOOTH",
"28 322 OFFCURVE",
"41 309 OFFCURVE",
"57 309 CURVE SMOOTH",
"77 309 OFFCURVE",
"75 319 OFFCURVE",
"88 339 CURVE SMOOTH",
"95 350 OFFCURVE",
"109 359 OFFCURVE",
"128 359 CURVE SMOOTH",
"167 359 OFFCURVE",
"198 329 OFFCURVE",
"196 269 CURVE SMOOTH",
"196 253 OFFCURVE",
"195 237 OFFCURVE",
"195 221 CURVE",
"90 157 LINE SMOOTH",
"48 132 OFFCURVE",
"19 118 OFFCURVE",
"20 69 CURVE SMOOTH",
"21 19 OFFCURVE",
"54 -10 OFFCURVE",
"95 -10 CURVE SMOOTH",
"114 -10 OFFCURVE",
"156 19 OFFCURVE",
"197 48 CURVE",
"211 -8 LINE",
"217 -11 LINE",
"319 28 LINE",
"319 52 LINE",
"289 49 OFFCURVE",
"271 54 OFFCURVE",
"272 80 CURVE SMOOTH"
);
},
{
closed = 1;
nodes = (
"181 59 OFFCURVE",
"158 46 OFFCURVE",
"139 46 CURVE SMOOTH",
"111 46 OFFCURVE",
"92 60 OFFCURVE",
"92 92 CURVE SMOOTH",
"92 123 OFFCURVE",
"100 137 OFFCURVE",
"194 188 CURVE",
"193 150 OFFCURVE",
"191 112 OFFCURVE",
"190 74 CURVE"
);
}
);
width = 343;
}
);
leftMetricsKey = a;
unicode = 0101;
},
{
color = 4;
glyphname = b;
lastChange = "2020-01-30 15:38:37 +0000";
layers = (
{
anchors = (
{
name = bottom;
position = "{250, 25}";
},
{
name = top;
position = "{250, 397}";
}
);
layerId = "4253F1EF-A5B5-4BB5-BE01-BA7FF064837C";
paths = (
{
closed = 1;
nodes = (
"268 400 OFFCURVE",
"196 357 OFFCURVE",
"160 337 CURVE",
"162 539 LINE SMOOTH",
"162 577 OFFCURVE",
"166 649 OFFCURVE",
"170 696 CURVE",
"149 709 LINE",
"111 680 OFFCURVE",
"61 649 OFFCURVE",
"10 626 CURVE",
"10 598 LINE",
"62 598 OFFCURVE",
"76 567 OFFCURVE",
"78 526 CURVE SMOOTH",
"86 360 OFFCURVE",
"83 175 OFFCURVE",
"74 3 CURVE",
"135 -2 OFFCURVE",
"201 -10 OFFCURVE",
"262 -10 CURVE",
"348 10 OFFCURVE",
"471 96 OFFCURVE",
"471 218 CURVE SMOOTH",
"471 342 OFFCURVE",
"402 400 OFFCURVE",
"288 400 CURVE SMOOTH"
);
},
{
closed = 1;
nodes = (
"276 51 OFFCURVE",
"199 60 OFFCURVE",
"178 76 CURVE",
"157 139 OFFCURVE",
"151 233 OFFCURVE",
"169 305 CURVE",
"199 323 OFFCURVE",
"236 333 OFFCURVE",
"271 333 CURVE SMOOTH",
"344 333 OFFCURVE",
"405 275 OFFCURVE",
"405 191 CURVE SMOOTH",
"405 122 OFFCURVE",
"364 64 OFFCURVE",
"316 51 CURVE"
);
}
);
width = 496;
}
);
rightMetricsKey = o;
unicode = 0062;
},
{
color = 4;
glyphname = c;
lastChange = "2020-02-10 11:56:33 +0000";
layers = (
{
anchors = (
{
name = bottom;
position = "{167, 25}";
},
{
name = top;
position = "{167, 397}";
}
);
layerId = "4253F1EF-A5B5-4BB5-BE01-BA7FF064837C";
paths = (
{
closed = 1;
nodes = (
"256 -9 OFFCURVE",
"294 13 OFFCURVE",
"335 43 CURVE",
"331 62 LINE",
"303 54 OFFCURVE",
"274 49 OFFCURVE",
"243 49 CURVE SMOOTH",
"125 49 OFFCURVE",
"99 141 OFFCURVE",
"99 206 CURVE SMOOTH",
"99 312 OFFCURVE",
"144 339 OFFCURVE",
"195 339 CURVE SMOOTH",
"230 339 OFFCURVE",
"256 330 OFFCURVE",
"271 324 CURVE",
"322 379 LINE",
"323 388 LINE",
"312 393 OFFCURVE",
"284 398 OFFCURVE",
"249 398 CURVE SMOOTH",
"170 398 OFFCURVE",
"82 332 OFFCURVE",
"58 298 CURVE SMOOTH",
"34 263 OFFCURVE",
"25 222 OFFCURVE",
"25 175 CURVE SMOOTH",
"25 71 OFFCURVE",
"71 -9 OFFCURVE",
"205 -9 CURVE SMOOTH"
);
}
);
width = 350;
}
);
leftMetricsKey = o;
unicode = 0063;
},
{
color = 4;
glyphname = c_t;
lastChange = "2020-02-10 12:32:06 +0000";
layers = (
{
anchors = (
{
name = bottom;
position = "{176, 25}";
},
{
name = top;
position = "{176, 397}";
}
);
layerId = "4253F1EF-A5B5-4BB5-BE01-BA7FF064837C";
paths = (
{
closed = 1;
nodes = (
"307 -9 OFFCURVE",
"355 67 OFFCURVE",
"386 156 CURVE",
"364 168 LINE",
"335 100 OFFCURVE",
"287 52 OFFCURVE",
"227 53 CURVE SMOOTH",
"133 54 OFFCURVE",
"90 129 OFFCURVE",
"90 204 CURVE SMOOTH",
"90 290 OFFCURVE",
"120 328 OFFCURVE",
"179 328 CURVE SMOOTH",
"235 328 OFFCURVE",
"268 321 OFFCURVE",
"311 307 CURVE",
"323 313 LINE",
"297 431 OFFCURVE",
"320 507 OFFCURVE",
"404 507 CURVE SMOOTH",
"478 507 OFFCURVE",
"488 450 OFFCURVE",
"488 415 CURVE SMOOTH",
"488 391 OFFCURVE",
"473 376 OFFCURVE",
"445 366 CURVE",
"445 352 LINE",
"478 352 LINE",
"480 62 LINE SMOOTH",
"480 27 OFFCURVE",
"511 -7 OFFCURVE",
"535 -8 CURVE SMOOTH",
"578 -10 OFFCURVE",
"634 22 OFFCURVE",
"661 42 CURVE",
"660 64 LINE",
"645 61 OFFCURVE",
"620 57 OFFCURVE",
"595 57 CURVE SMOOTH",
"575 57 OFFCURVE",
"559 69 OFFCURVE",
"559 95 CURVE SMOOTH",
"559 351 LINE",
"661 351 LINE",
"665 390 LINE",
"562 390 LINE",
"562 454 OFFCURVE",
"559 554 OFFCURVE",
"416 554 CURVE SMOOTH",
"314 554 OFFCURVE",
"265 474 OFFCURVE",
"285 382 CURVE",
"264 389 OFFCURVE",
"234 399 OFFCURVE",
"213 399 CURVE SMOOTH",
"125 399 OFFCURVE",
"25 270 OFFCURVE",
"25 176 CURVE SMOOTH",
"25 82 OFFCURVE",
"81 -9 OFFCURVE",
"208 -9 CURVE SMOOTH"
);
}
);
width = 675;
}
);
leftMetricsKey = c;
rightMetricsKey = t;
},
{
color = 4;
glyphname = d;
lastChange = "2020-02-10 11:57:08 +0000";
layers = (
{
anchors = (
{
name = bottom;
position = "{253, 25}";
},
{
name = center;
position = "{253, 211}";
},
{
name = top;
position = "{253, 397}";
},
{
name = topright;
position = "{489, 397}";
}
);
layerId = "4253F1EF-A5B5-4BB5-BE01-BA7FF064837C";
paths = (
{
closed = 1;
nodes = (
"402 2 OFFCURVE",
"445 19 OFFCURVE",
"484 34 CURVE",
"484 62 LINE",
"455 59 OFFCURVE",
"427 55 OFFCURVE",
"427 88 CURVE SMOOTH",
"431 593 LINE SMOOTH",
"431 630 OFFCURVE",
"436 678 OFFCURVE",
"440 711 CURVE",
"422 723 LINE",
"379 690 OFFCURVE",
"328 666 OFFCURVE",
"288 649 CURVE",
"288 621 LINE",
"304 620 LINE SMOOTH",
"336 618 OFFCURVE",
"348 599 OFFCURVE",
"348 560 CURVE SMOOTH",
"346 392 LINE",
"309 396 OFFCURVE",
"267 400 OFFCURVE",
"221 400 CURVE SMOOTH",
"193 400 OFFCURVE",
"25 343 OFFCURVE",
"25 175 CURVE SMOOTH",
"25 53 OFFCURVE",
"116 -10 OFFCURVE",
"212 -10 CURVE SMOOTH",
"237 -10 OFFCURVE",
"303 43 OFFCURVE",
"348 70 CURVE",
"353 -8 LINE",
"365 -13 LINE"
);
},
{
closed = 1;
nodes = (
"152 56 OFFCURVE",
"97 119 OFFCURVE",
"97 212 CURVE SMOOTH",
"97 290 OFFCURVE",
"149 355 OFFCURVE",
"228 353 CURVE SMOOTH",
"304 352 OFFCURVE",
"348 296 OFFCURVE",
"348 222 CURVE SMOOTH",
"348 113 LINE",
"319 76 OFFCURVE",
"277 56 OFFCURVE",
"238 56 CURVE SMOOTH"
);
}
);
width = 509;
}
);
leftMetricsKey = o;
rightMetricsKey = a;
unicode = 0064;
},
{
color = 4;
glyphname = d_strok;
lastChange = "2020-02-10 11:57:27 +0000";
layers = (
{
anchors = (
{
name = bottom;
position = "{253, 25}";
},
{
name = center;
position = "{253, 211}";
},
{
name = top;
position = "{253, 397}";
},
{
name = topright;
position = "{489, 397}";
}
);
layerId = "4253F1EF-A5B5-4BB5-BE01-BA7FF064837C";
paths = (
{
closed = 1;
nodes = (
"625 622 OFFCURVE",
"580 666 OFFCURVE",
"518 702 CURVE",
"453 647 LINE",
"453 625 LINE",
"524 623 OFFCURVE",
"559 569 OFFCURVE",
"559 519 CURVE SMOOTH",
"559 438 OFFCURVE",
"516 386 OFFCURVE",
"429 340 CURVE",
"431 593 LINE SMOOTH",
"431 630 OFFCURVE",
"436 678 OFFCURVE",
"440 711 CURVE",
"422 723 LINE",
"379 690 OFFCURVE",
"328 666 OFFCURVE",
"288 649 CURVE",
"288 621 LINE",
"304 620 LINE SMOOTH",
"336 618 OFFCURVE",
"348 599 OFFCURVE",
"348 560 CURVE SMOOTH",
"346 392 LINE",
"309 396 OFFCURVE",
"267 400 OFFCURVE",
"221 400 CURVE SMOOTH",
"193 400 OFFCURVE",
"25 343 OFFCURVE",
"25 175 CURVE SMOOTH",
"25 53 OFFCURVE",
"116 -10 OFFCURVE",
"212 -10 CURVE SMOOTH",
"237 -10 OFFCURVE",
"303 43 OFFCURVE",
"348 70 CURVE",
"353 -8 LINE",
"365 -13 LINE",
"402 2 OFFCURVE",
"445 19 OFFCURVE",
"484 34 CURVE",
"484 62 LINE",
"455 59 OFFCURVE",
"427 55 OFFCURVE",
"427 88 CURVE SMOOTH",
"429 312 LINE",
"534 349 OFFCURVE",
"625 423 OFFCURVE",
"625 543 CURVE SMOOTH"
);
},
{
closed = 1;
nodes = (
"319 76 OFFCURVE",
"277 56 OFFCURVE",
"238 56 CURVE SMOOTH",
"152 56 OFFCURVE",
"97 119 OFFCURVE",
"97 212 CURVE SMOOTH",
"97 290 OFFCURVE",
"149 355 OFFCURVE",
"228 353 CURVE SMOOTH",
"304 352 OFFCURVE",
"348 296 OFFCURVE",
"348 222 CURVE SMOOTH",
"348 113 LINE"
);
}
);
width = 505;
}
);
},
{
color = 4;
glyphname = e;
lastChange = "2020-02-10 11:58:52 +0000";
layers = (
{
anchors = (
{
name = bottom;
position = "{190, 35}";
},
{
name = ogonek;
position = "{333, 34}";
},
{
name = top;
position = "{188, 397}";
}
);
layerId = "4253F1EF-A5B5-4BB5-BE01-BA7FF064837C";
paths = (
{
closed = 1;
nodes = (
"309 59 OFFCURVE",
"268 52 OFFCURVE",
"242 52 CURVE SMOOTH",
"159 52 OFFCURVE",
"108 110 OFFCURVE",
"96 183 CURVE",
"347 289 LINE",
"347 303 LINE",
"315 324 OFFCURVE",
"267 400 OFFCURVE",
"197 400 CURVE SMOOTH",
"153 400 OFFCURVE",
"85 353 OFFCURVE",
"68 339 CURVE",
"40 306 OFFCURVE",
"25 264 OFFCURVE",
"25 188 CURVE SMOOTH",
"25 106 OFFCURVE",
"57 -10 OFFCURVE",
"207 -10 CURVE SMOOTH",
"262 -10 OFFCURVE",
"319 34 OFFCURVE",
"350 56 CURVE",
"343 76 LINE"
);
},
{
closed = 1;
nodes = (
"95 306 OFFCURVE",
"118 351 OFFCURVE",
"158 351 CURVE SMOOTH",
"190 351 OFFCURVE",
"233 308 OFFCURVE",
"243 277 CURVE",
"93 213 LINE",
"93 227 LINE SMOOTH"
);
}
);
width = 360;
}
);
unicode = 0065;
},
{
color = 4;
glyphname = e_macr;
lastChange = "2020-02-10 11:58:02 +0000";
layers = (
{
anchors = (
{
name = bottom;
position = "{184, 35}";
},
{
name = ogonek;
position = "{327, 34}";
},
{
name = top;
position = "{182, 397}";
}
);
layerId = "4253F1EF-A5B5-4BB5-BE01-BA7FF064837C";
paths = (
{
closed = 1;
nodes = (
"149 523 OFFCURVE",
"214 512 OFFCURVE",
"253 512 CURVE SMOOTH",
"259 512 OFFCURVE",
"324 594 OFFCURVE",
"338 617 CURVE",
"310 625 LINE",
"298 610 OFFCURVE",
"282 580 OFFCURVE",
"261 580 CURVE SMOOTH",
"229 580 OFFCURVE",
"148 594 OFFCURVE",
"108 594 CURVE SMOOTH",
"102 594 OFFCURVE",
"56 523 OFFCURVE",
"42 500 CURVE",
"71 491 LINE",
"85 508 OFFCURVE",
"96 523 OFFCURVE",
"118 523 CURVE SMOOTH"
);
},
{
closed = 1;
nodes = (
"303 50 OFFCURVE",
"253 43 OFFCURVE",
"227 43 CURVE SMOOTH",
"152 43 OFFCURVE",
"111 102 OFFCURVE",
"99 183 CURVE",
"328 254 LINE",
"332 268 LINE",
"304 347 OFFCURVE",
"243 400 OFFCURVE",
"204 400 CURVE SMOOTH",
"160 400 OFFCURVE",
"79 353 OFFCURVE",
"62 339 CURVE",
"34 306 OFFCURVE",
"25 234 OFFCURVE",
"25 188 CURVE SMOOTH",
"25 76 OFFCURVE",
"71 -10 OFFCURVE",
"191 -10 CURVE SMOOTH",
"246 -10 OFFCURVE",
"313 25 OFFCURVE",
"344 47 CURVE",
"337 67 LINE"
);
},
{
closed = 1;
nodes = (
"97 306 OFFCURVE",
"112 351 OFFCURVE",
"152 351 CURVE SMOOTH",
"184 351 OFFCURVE",
"227 315 OFFCURVE",
"237 254 CURVE",
"96 213 LINE",
"95 224 OFFCURVE",
"95 235 OFFCURVE",
"95 247 CURVE SMOOTH"
);
}
);
width = 354;
}
);
rightMetricsKey = e;
unicode = 0113;
},
{
color = 4;
glyphname = e_ogon;
lastChange = "2020-02-10 11:59:22 +0000";
layers = (
{
anchors = (
{
name = bottom;
position = "{184, 35}";
},
{
name = ogonek;
position = "{327, 34}";
},
{
name = top;
position = "{182, 397}";
}
);
layerId = "4253F1EF-A5B5-4BB5-BE01-BA7FF064837C";
paths = (
{
closed = 1;
nodes = (
"130 -176 OFFCURVE",
"135 -170 OFFCURVE",
"140 -157 CURVE SMOOTH",
"162 -106 OFFCURVE",
"197 -55 OFFCURVE",
"241 -3 CURVE",
"280 7 OFFCURVE",
"315 28 OFFCURVE",
"344 47 CURVE",
"337 66 LINE",
"309 51 OFFCURVE",
"253 43 OFFCURVE",
"227 43 CURVE SMOOTH",
"165 43 OFFCURVE",
"126 84 OFFCURVE",
"107 144 CURVE",
"327 334 LINE",
"331 348 LINE",
"303 367 OFFCURVE",
"261 400 OFFCURVE",
"181 400 CURVE SMOOTH",
"159 400 OFFCURVE",
"79 338 OFFCURVE",
"62 318 CURVE SMOOTH",
"34 285 OFFCURVE",
"25 234 OFFCURVE",
"25 188 CURVE SMOOTH",
"25 76 OFFCURVE",
"71 -10 OFFCURVE",
"191 -10 CURVE SMOOTH",
"204 -10 LINE",
"135 -83 OFFCURVE",
"64 -196 OFFCURVE",
"48 -227 CURVE",
"55 -239 LINE",
"93 -239 OFFCURVE",
"199 -231 OFFCURVE",
"255 -209 CURVE",
"271 -192 LINE",
"272 -186 LINE",
"241 -188 OFFCURVE",
"179 -187 OFFCURVE",
"153 -181 CURVE SMOOTH"
);
},
{
closed = 1;
nodes = (
"97 306 OFFCURVE",
"112 341 OFFCURVE",
"152 341 CURVE SMOOTH",
"184 341 OFFCURVE",
"213 327 OFFCURVE",
"242 296 CURVE",
"100 173 LINE",
"96 196 OFFCURVE",
"94 221 OFFCURVE",
"95 247 CURVE SMOOTH"
);
}
);
width = 354;
}
);
leftMetricsKey = e;
unicode = 0119;
},
{
color = 4;
glyphname = f;
lastChange = "2020-02-10 11:59:31 +0000";
layers = (
{
anchors = (
{
name = bottom;
position = "{139, 25}";
},
{
name = top;
position = "{139, 397}";
}
);
layerId = "4253F1EF-A5B5-4BB5-BE01-BA7FF064837C";
paths = (
{
closed = 1;
nodes = (
"255 0 LINE",
"255 25 LINE",
"191 32 LINE SMOOTH",
"177 34 OFFCURVE",
"171 42 OFFCURVE",
"171 56 CURVE SMOOTH",
"172 328 LINE",
"265 328 LINE",
"268 372 LINE",
"172 372 LINE",
"172 461 OFFCURVE",
"171 602 OFFCURVE",
"192 629 CURVE SMOOTH",
"206 647 OFFCURVE",
"231 660 OFFCURVE",
"263 660 CURVE SMOOTH",
"302 660 OFFCURVE",
"340 645 OFFCURVE",
"370 627 CURVE",
"388 645 OFFCURVE",
"405 663 OFFCURVE",
"405 676 CURVE",
"393 703 OFFCURVE",
"339 710 OFFCURVE",
"313 710 CURVE SMOOTH",
"255 710 OFFCURVE",
"194 663 OFFCURVE",
"162 633 CURVE SMOOTH",
"134 606 OFFCURVE",
"117 581 OFFCURVE",
"114 572 CURVE SMOOTH",
"97 521 OFFCURVE",
"95 437 OFFCURVE",
"93 372 CURVE",
"28 372 LINE",
"28 328 LINE",
"92 328 LINE",
"91 56 LINE SMOOTH",
"91 42 OFFCURVE",
"83 34 OFFCURVE",
"69 32 CURVE SMOOTH",
"20 25 LINE",
"20 0 LINE"
);
}
);
width = 280;
}
);
unicode = 0066;
},
{
color = 4;
glyphname = f_f;
lastChange = "2020-02-10 11:59:54 +0000";
layers = (
{
anchors = (
{
name = bottom;
position = "{128, 25}";
},
{
name = top;
position = "{128, 397}";
}
);
layerId = "4253F1EF-A5B5-4BB5-BE01-BA7FF064837C";
paths = (
{
closed = 1;
nodes = (
"254 0 LINE",
"254 25 LINE",
"190 32 LINE SMOOTH",
"176 34 OFFCURVE",
"170 42 OFFCURVE",
"170 56 CURVE SMOOTH",
"171 317 LINE",
"417 317 LINE",
"416 56 LINE SMOOTH",
"416 42 OFFCURVE",
"408 34 OFFCURVE",
"394 32 CURVE SMOOTH",
"345 25 LINE",
"345 0 LINE",
"580 0 LINE",
"580 25 LINE",
"516 32 LINE SMOOTH",
"502 34 OFFCURVE",
"496 42 OFFCURVE",
"496 56 CURVE SMOOTH",
"497 317 LINE",
"590 317 LINE",
"593 372 LINE",
"497 372 LINE",
"497 461 OFFCURVE",
"487 602 OFFCURVE",
"508 629 CURVE SMOOTH",
"522 647 OFFCURVE",
"556 660 OFFCURVE",
"588 660 CURVE SMOOTH",
"627 660 OFFCURVE",
"665 645 OFFCURVE",
"695 627 CURVE",
"713 645 OFFCURVE",
"730 663 OFFCURVE",
"730 676 CURVE",
"718 703 OFFCURVE",
"654 710 OFFCURVE",
"628 710 CURVE SMOOTH",
"586 710 OFFCURVE",
"553 690 OFFCURVE",
"500 663 CURVE",
"471 673 OFFCURVE",
"386 706 OFFCURVE",
"339 706 CURVE SMOOTH",
"314 706 OFFCURVE",
"222 676 OFFCURVE",
"182 653 CURVE SMOOTH",
"149 634 OFFCURVE",
"110 597 OFFCURVE",
"107 588 CURVE SMOOTH",
"90 537 OFFCURVE",
"96 442 OFFCURVE",
"94 377 CURVE",
"28 342 LINE",
"28 317 LINE",
"91 317 LINE",
"90 56 LINE SMOOTH",
"90 42 OFFCURVE",
"82 34 OFFCURVE",
"68 32 CURVE SMOOTH",
"20 25 LINE",
"20 0 LINE"
);
},
{
closed = 1;
nodes = (
"168 403 OFFCURVE",
"169 433 OFFCURVE",
"169 464 CURVE SMOOTH",
"169 588 OFFCURVE",
"190 626 OFFCURVE",
"241 655 CURVE",
"384 649 OFFCURVE",
"423 633 OFFCURVE",
"423 567 CURVE SMOOTH",
"423 499 OFFCURVE",
"422 421 OFFCURVE",
"418 372 CURVE",
"171 372 LINE"
);
}
);
width = 605;
}
);
leftMetricsKey = f;
rightMetricsKey = f;
},
{
color = 4;
glyphname = f_i;
lastChange = "2020-02-10 12:32:06 +0000";
layers = (
{
anchors = (
{
name = bottom;
position = "{139, 25}";
},
{
name = top;
position = "{139, 397}";
}
);
layerId = "4253F1EF-A5B5-4BB5-BE01-BA7FF064837C";
paths = (
{
closed = 1;
nodes = (
"255 0 LINE",
"255 25 LINE",
"191 32 LINE SMOOTH",
"177 34 OFFCURVE",
"171 42 OFFCURVE",
"171 56 CURVE SMOOTH",
"172 328 LINE",
"265 328 LINE",
"268 372 LINE",
"172 372 LINE",
"172 461 OFFCURVE",
"171 602 OFFCURVE",
"192 629 CURVE SMOOTH",
"206 647 OFFCURVE",
"231 660 OFFCURVE",
"263 660 CURVE SMOOTH",
"302 660 OFFCURVE",
"340 645 OFFCURVE",
"370 627 CURVE",
"388 645 OFFCURVE",
"405 663 OFFCURVE",
"405 676 CURVE",
"393 703 OFFCURVE",
"339 710 OFFCURVE",
"313 710 CURVE SMOOTH",
"255 710 OFFCURVE",
"194 663 OFFCURVE",
"162 633 CURVE SMOOTH",
"134 606 OFFCURVE",
"117 581 OFFCURVE",
"114 572 CURVE SMOOTH",
"97 521 OFFCURVE",
"95 437 OFFCURVE",
"93 372 CURVE",
"28 372 LINE",
"28 328 LINE",
"92 328 LINE",
"91 56 LINE SMOOTH",
"91 42 OFFCURVE",
"83 34 OFFCURVE",
"69 32 CURVE SMOOTH",
"20 25 LINE",
"20 0 LINE"
);
},
{
closed = 1;
nodes = (
"398 -5 OFFCURVE",
"441 -1 OFFCURVE",
"503 2 CURVE",
"503 27 LINE",
"454 31 OFFCURVE",
"445 32 OFFCURVE",
"445 58 CURVE SMOOTH",
"445 156 OFFCURVE",
"440 295 OFFCURVE",
"454 392 CURVE",
"442 403 LINE",
"412 392 OFFCURVE",
"346 375 OFFCURVE",
"313 362 CURVE",
"313 337 LINE",
"344 335 OFFCURVE",
"363 329 OFFCURVE",
"364 287 CURVE SMOOTH",
"365 233 OFFCURVE",
"369 84 OFFCURVE",
"353 3 CURVE",
"355 -10 LINE"
);
}
);
width = 518;
}
);
rightMetricsKey = i;
},
{
color = 4;
glyphname = f_l;
lastChange = "2020-02-10 12:32:06 +0000";
layers = (
{
layerId = "4253F1EF-A5B5-4BB5-BE01-BA7FF064837C";
paths = (
{
closed = 1;
nodes = (
"496 34 OFFCURVE",
"489 54 OFFCURVE",
"489 89 CURVE SMOOTH",
"489 541 LINE SMOOTH",
"489 580 OFFCURVE",
"493 658 OFFCURVE",
"497 706 CURVE",
"473 710 LINE",
"464 696 OFFCURVE",
"453 681 OFFCURVE",
"441 665 CURVE",
"403 685 OFFCURVE",
"362 700 OFFCURVE",
"330 700 CURVE SMOOTH",
"305 700 OFFCURVE",
"227 676 OFFCURVE",
"187 653 CURVE SMOOTH",
"154 634 OFFCURVE",
"111 597 OFFCURVE",
"108 588 CURVE SMOOTH",
"91 537 OFFCURVE",
"97 442 OFFCURVE",
"95 377 CURVE",
"28 341 LINE",
"28 317 LINE",
"92 317 LINE",
"91 57 LINE SMOOTH",
"91 43 OFFCURVE",
"83 35 OFFCURVE",
"69 33 CURVE SMOOTH",
"20 26 LINE",
"20 0 LINE",
"259 0 LINE",
"259 26 LINE",
"195 33 LINE SMOOTH",
"181 35 OFFCURVE",
"175 43 OFFCURVE",
"175 57 CURVE SMOOTH",
"176 317 LINE",
"409 317 LINE",
"409 89 LINE SMOOTH",
"409 61 OFFCURVE",
"404 35 OFFCURVE",
"376 30 CURVE SMOOTH",
"350 25 LINE",
"350 0 LINE",
"545 0 LINE",
"545 25 LINE",
"517 30 LINE SMOOTH"
);
},
{
closed = 1;
nodes = (
"170 467 OFFCURVE",
"176 549 OFFCURVE",
"187 588 CURVE SMOOTH",
"200 634 OFFCURVE",
"242 655 OFFCURVE",
"257 655 CURVE SMOOTH",
"268 655 OFFCURVE",
"364 648 OFFCURVE",
"407 599 CURVE",
"408 582 OFFCURVE",
"409 559 OFFCURVE",
"409 542 CURVE SMOOTH",
"409 372 LINE",
"175 372 LINE"
);
}
);
width = 560;
}
);
leftMetricsKey = f;
rightMetricsKey = i;
},
{
color = 4;
glyphname = g;
lastChange = "2020-02-10 12:00:21 +0000";
layers = (
{
anchors = (
{
name = bottom;
position = "{268, -1}";
},
{
name = top;
position = "{268, 399}";
}
);
layerId = "4253F1EF-A5B5-4BB5-BE01-BA7FF064837C";
paths = (
{
closed = 1;
nodes = (
"279 14 OFFCURVE",
"167 32 OFFCURVE",
"167 50 CURVE SMOOTH",
"167 58 OFFCURVE",
"196 78 OFFCURVE",
"229 90 CURVE",
"352 95 OFFCURVE",
"429 152 OFFCURVE",
"429 256 CURVE SMOOTH",
"429 292 OFFCURVE",
"410 321 OFFCURVE",
"392 348 CURVE",
"502 348 LINE",
"502 393 LINE",
"390 393 OFFCURVE",
"322 400 OFFCURVE",
"250 400 CURVE SMOOTH",
"122 400 OFFCURVE",
"40 334 OFFCURVE",
"40 231 CURVE SMOOTH",
"40 163 OFFCURVE",
"89 109 OFFCURVE",
"168 94 CURVE",
"118 63 OFFCURVE",
"56 37 OFFCURVE",
"56 26 CURVE SMOOTH",
"56 10 OFFCURVE",
"66 -19 OFFCURVE",
"71 -23 CURVE SMOOTH",
"83 -33 OFFCURVE",
"118 -39 OFFCURVE",
"160 -44 CURVE",
"105 -75 OFFCURVE",
"43 -121 OFFCURVE",
"43 -190 CURVE SMOOTH",
"43 -272 OFFCURVE",
"135 -309 OFFCURVE",
"279 -309 CURVE SMOOTH",
"413 -309 OFFCURVE",
"536 -254 OFFCURVE",
"536 -138 CURVE SMOOTH",
"536 -45 OFFCURVE",
"473 -18 OFFCURVE",
"374 -1 CURVE SMOOTH"
);
},
{
closed = 1;
nodes = (
"126 306 OFFCURVE",
"173 349 OFFCURVE",
"236 349 CURVE SMOOTH",
"301 349 OFFCURVE",
"343 307 OFFCURVE",
"343 235 CURVE SMOOTH",
"343 171 OFFCURVE",
"301 123 OFFCURVE",
"236 123 CURVE SMOOTH",
"177 123 OFFCURVE",
"126 172 OFFCURVE",
"126 242 CURVE SMOOTH"
);
},
{
closed = 1;
nodes = (
"173 -276 OFFCURVE",
"127 -217 OFFCURVE",
"127 -153 CURVE SMOOTH",
"127 -116 OFFCURVE",
"166 -71 OFFCURVE",
"204 -49 CURVE",
"245 -53 OFFCURVE",
"288 -57 OFFCURVE",
"321 -63 CURVE SMOOTH",
"403 -78 OFFCURVE",
"468 -97 OFFCURVE",
"468 -167 CURVE SMOOTH",
"468 -237 OFFCURVE",
"379 -276 OFFCURVE",
"306 -276 CURVE SMOOTH"
);
}
);
width = 521;
}
);
unicode = 0067;
},
{
color = 4;
glyphname = h;
lastChange = "2020-02-10 12:31:54 +0000";
layers = (
{
anchors = (
{
name = bottom;
position = "{257, 25}";
},
{
name = center;
position = "{257, 211}";
},
{
name = top;
position = "{257, 397}";
}
);
layerId = "4253F1EF-A5B5-4BB5-BE01-BA7FF064837C";
paths = (
{
closed = 1;
nodes = (
"217 381 OFFCURVE",
"179 351 OFFCURVE",
"160 338 CURVE",
"160 547 LINE SMOOTH",
"160 585 OFFCURVE",
"159 650 OFFCURVE",
"164 697 CURVE",
"143 708 LINE",
"108 678 OFFCURVE",
"63 644 OFFCURVE",
"10 616 CURVE",
"10 588 LINE",
"62 588 OFFCURVE",
"79 566 OFFCURVE",
"82 502 CURVE SMOOTH",
"85 440 OFFCURVE",
"83 172 OFFCURVE",
"78 66 CURVE SMOOTH",
"77 46 OFFCURVE",
"71 36 OFFCURVE",
"52 31 CURVE SMOOTH",
"31 25 LINE",
"31 0 LINE",
"218 -1 LINE",
"218 26 LINE",
"190 28 LINE SMOOTH",
"169 30 OFFCURVE",
"161 45 OFFCURVE",
"161 61 CURVE SMOOTH",
"161 298 LINE",
"185 324 OFFCURVE",
"217 346 OFFCURVE",
"259 346 CURVE SMOOTH",
"345 346 OFFCURVE",
"422 274 OFFCURVE",
"422 178 CURVE SMOOTH",
"422 106 OFFCURVE",
"385 51 OFFCURVE",
"364 51 CURVE SMOOTH",
"357 51 OFFCURVE",
"348 55 OFFCURVE",
"342 55 CURVE SMOOTH",
"336 55 OFFCURVE",
"295 32 OFFCURVE",
"295 14 CURVE SMOOTH",
"295 -4 OFFCURVE",
"308 -14 OFFCURVE",
"326 -14 CURVE SMOOTH",
"375 -14 OFFCURVE",
"490 109 OFFCURVE",
"490 200 CURVE SMOOTH",
"490 342 OFFCURVE",
"391 422 OFFCURVE",
"228 388 CURVE"
);
}
);
width = 515;
}
);
leftMetricsKey = l;
rightMetricsKey = o;
unicode = 0068;
},
{
color = 4;
glyphname = i;
lastChange = "2020-02-10 12:31:58 +0000";
layers = (
{
anchors = (
{
name = bottom;
position = "{112, 25}";
}
);
layerId = "4253F1EF-A5B5-4BB5-BE01-BA7FF064837C";
paths = (
{
closed = 1;
nodes = (
"150 604 OFFCURVE",
"163 619 OFFCURVE",
"160 640 CURVE SMOOTH",
"157 659 OFFCURVE",
"141 671 OFFCURVE",
"118 668 CURVE SMOOTH",
"94 665 OFFCURVE",
"80 648 OFFCURVE",
"83 629 CURVE SMOOTH",
"86 609 OFFCURVE",
"103 595 OFFCURVE",
"128 600 CURVE SMOOTH"
);
},
{
closed = 1;
nodes = (
"105 -7 OFFCURVE",
"148 -3 OFFCURVE",
"210 0 CURVE",
"210 25 LINE",
"161 29 OFFCURVE",
"152 30 OFFCURVE",
"152 56 CURVE SMOOTH",
"152 154 OFFCURVE",
"147 293 OFFCURVE",
"161 390 CURVE",
"149 401 LINE",
"119 390 OFFCURVE",
"53 373 OFFCURVE",
"20 360 CURVE",
"20 335 LINE",
"51 333 OFFCURVE",
"70 327 OFFCURVE",
"71 285 CURVE SMOOTH",
"72 231 OFFCURVE",
"76 82 OFFCURVE",
"60 1 CURVE",
"62 -12 LINE"
);
}
);
width = 225;
}
);
leftMetricsKey = n;
rightMetricsKey = n;
unicode = 0069;
},
{
color = 4;
glyphname = i_macr;
lastChange = "2020-02-10 12:32:06 +0000";
layers = (
{
layerId = "4253F1EF-A5B5-4BB5-BE01-BA7FF064837C";
paths = (
{
closed = 1;
nodes = (
"18 537 OFFCURVE",
"24 543 OFFCURVE",
"46 543 CURVE SMOOTH",
"77 543 OFFCURVE",
"113 532 OFFCURVE",
"152 532 CURVE SMOOTH",
"158 532 OFFCURVE",
"216 596 OFFCURVE",
"230 619 CURVE",
"202 627 LINE",
"190 622 OFFCURVE",
"181 615 OFFCURVE",
"160 615 CURVE SMOOTH",
"128 615 OFFCURVE",
"93 625 OFFCURVE",
"53 625 CURVE SMOOTH",
"47 625 OFFCURVE",
"-11 562 OFFCURVE",
"-25 539 CURVE",
"4 530 LINE"
);
},
{
closed = 1;
nodes = (
"111 -6 OFFCURVE",
"154 -2 OFFCURVE",
"216 1 CURVE",
"216 26 LINE",
"167 30 OFFCURVE",
"158 31 OFFCURVE",
"158 57 CURVE SMOOTH",
"158 155 OFFCURVE",
"153 294 OFFCURVE",
"167 391 CURVE",
"155 402 LINE",
"125 391 OFFCURVE",
"59 374 OFFCURVE",
"26 361 CURVE",
"26 336 LINE",
"57 334 OFFCURVE",
"76 328 OFFCURVE",
"77 286 CURVE SMOOTH",
"78 232 OFFCURVE",
"82 83 OFFCURVE",
"66 2 CURVE",
"68 -11 LINE"
);
}
);
width = 245;
}
);
rightMetricsKey = i;
unicode = 012B;
},
{
color = 4;
glyphname = i_j;
lastChange = "2020-02-10 12:32:06 +0000";
layers = (
{
anchors = (
{
name = bottom;
position = "{119, 25}";
}
);
layerId = "4253F1EF-A5B5-4BB5-BE01-BA7FF064837C";
paths = (
{
closed = 1;
nodes = (
"129 521 OFFCURVE",
"144 537 OFFCURVE",
"140 561 CURVE SMOOTH",
"136 583 OFFCURVE",
"119 596 OFFCURVE",
"92 593 CURVE SMOOTH",
"65 590 OFFCURVE",
"50 570 OFFCURVE",
"53 549 CURVE SMOOTH",
"56 526 OFFCURVE",
"75 511 OFFCURVE",
"103 516 CURVE SMOOTH"
);
},
{
closed = 1;
nodes = (
"315 520 OFFCURVE",
"330 537 OFFCURVE",
"326 561 CURVE SMOOTH",
"322 583 OFFCURVE",
"305 596 OFFCURVE",
"278 593 CURVE SMOOTH",
"252 590 OFFCURVE",
"236 570 OFFCURVE",
"239 549 CURVE SMOOTH",
"242 526 OFFCURVE",
"262 512 OFFCURVE",
"290 516 CURVE SMOOTH"
);
},
{
closed = 1;
nodes = (
"228 378 OFFCURVE",
"197 360 OFFCURVE",
"164 342 CURVE",
"99 396 LINE",
"70 383 OFFCURVE",
"49 370 OFFCURVE",
"20 356 CURVE",
"20 334 LINE",
"58 321 OFFCURVE",
"80 297 OFFCURVE",
"80 256 CURVE SMOOTH",
"80 202 OFFCURVE",
"80 137 OFFCURVE",
"79 72 CURVE SMOOTH",
"78 46 OFFCURVE",
"77 38 OFFCURVE",
"59 20 CURVE",
"59 0 LINE",
"77 -2 OFFCURVE",
"150 -8 OFFCURVE",
"168 -10 CURVE",
"164 77 OFFCURVE",
"160 245 OFFCURVE",
"165 316 CURVE",
"231 313 OFFCURVE",
"271 304 OFFCURVE",
"271 254 CURVE SMOOTH",
"271 177 OFFCURVE",
"272 118 OFFCURVE",
"272 30 CURVE SMOOTH",
"272 -84 OFFCURVE",
"255 -130 OFFCURVE",
"214 -246 CURVE",
"235 -254 LINE",
"306 -130 OFFCURVE",
"356 -36 OFFCURVE",
"356 20 CURVE SMOOTH",
"356 140 OFFCURVE",
"357 200 OFFCURVE",
"360 318 CURVE",
"332 347 OFFCURVE",
"303 372 OFFCURVE",
"265 401 CURVE"
);
}
);
width = 400;
}
);
leftMetricsKey = i;
},
{
color = 6;
glyphname = j;
lastChange = "2020-02-10 12:00:59 +0000";
layers = (
{
layerId = "4253F1EF-A5B5-4BB5-BE01-BA7FF064837C";
paths = (
{
closed = 1;
nodes = (
"120 594 OFFCURVE",
"134 611 OFFCURVE",
"130 634 CURVE SMOOTH",
"126 655 OFFCURVE",
"110 668 OFFCURVE",
"84 665 CURVE SMOOTH",
"58 662 OFFCURVE",
"43 643 OFFCURVE",
"46 622 CURVE SMOOTH",
"49 600 OFFCURVE",
"68 586 OFFCURVE",
"95 590 CURVE SMOOTH"
);
},
{
closed = 1;
nodes = (
"92 -132 OFFCURVE",
"142 -36 OFFCURVE",
"142 20 CURVE SMOOTH",
"142 140 OFFCURVE",
"138 337 OFFCURVE",
"155 389 CURVE",
"141 400 LINE",
"88 385 OFFCURVE",
"56 373 OFFCURVE",
"9 362 CURVE",
"9 336 LINE",
"53 332 OFFCURVE",
"57 315 OFFCURVE",
"57 264 CURVE SMOOTH",
"57 187 OFFCURVE",
"58 118 OFFCURVE",
"58 30 CURVE SMOOTH",
"58 -84 OFFCURVE",
"41 -130 OFFCURVE",
"0 -246 CURVE",
"21 -256 LINE"
);
}
);
width = 205;
}
);
unicode = 006A;
},
{
color = 4;
glyphname = k;
lastChange = "2020-02-10 12:01:18 +0000";
layers = (
{
layerId = "4253F1EF-A5B5-4BB5-BE01-BA7FF064837C";
paths = (
{
closed = 1;
nodes = (
"420 77 OFFCURVE",
"402 86 OFFCURVE",
"386 102 CURVE SMOOTH",
"239 246 LINE",
"334 312 LINE SMOOTH",
"350 323 OFFCURVE",
"378 344 OFFCURVE",
"398 347 CURVE",
"398 372 LINE",
"247 372 LINE",
"247 346 LINE",
"277 333 OFFCURVE",
"266 309 OFFCURVE",
"248 294 CURVE SMOOTH",
"152 215 LINE",
"151 327 OFFCURVE",
"153 459 OFFCURVE",
"155 537 CURVE SMOOTH",
"156 578 OFFCURVE",
"160 653 OFFCURVE",
"164 700 CURVE",
"143 710 LINE",
"97 676 OFFCURVE",
"56 648 OFFCURVE",
"10 627 CURVE",
"10 600 LINE",
"62 600 OFFCURVE",
"67 581 OFFCURVE",
"69 537 CURVE SMOOTH",
"75 399 OFFCURVE",
"78 226 OFFCURVE",
"74 77 CURVE SMOOTH",
"73 52 OFFCURVE",
"67 30 OFFCURVE",
"51 11 CURVE",
"51 -14 LINE",
"93 -8 OFFCURVE",
"123 -3 OFFCURVE",
"167 0 CURVE",
"167 28 LINE",
"159 52 OFFCURVE",
"155 111 OFFCURVE",
"153 183 CURVE",
"167 187 LINE SMOOTH",
"212 200 OFFCURVE",
"334 40 OFFCURVE",
"361 -14 CURVE",
"367 -15 LINE",
"447 53 LINE",
"437 74 LINE"
);
}
);
width = 457;
}
);
unicode = 006B;
},
{
color = 4;
glyphname = l;
lastChange = "2020-02-10 12:02:02 +0000";
layers = (
{
anchors = (
{
name = bottom;
position = "{109, 25}";
},
{
name = center;
position = "{109, 211}";
},
{
name = top;
position = "{109, 397}";
},
{
name = topright;
position = "{206, 397}";
}
);
layerId = "4253F1EF-A5B5-4BB5-BE01-BA7FF064837C";
paths = (
{
closed = 1;
nodes = (
"85 -10 OFFCURVE",
"151 2 OFFCURVE",
"217 1 CURVE",
"217 29 LINE",
"175 31 OFFCURVE",
"156 30 OFFCURVE",
"155 63 CURVE SMOOTH",
"153 153 OFFCURVE",
"152 427 OFFCURVE",
"154 572 CURVE SMOOTH",
"155 634 OFFCURVE",
"157 644 OFFCURVE",
"164 701 CURVE",
"151 710 LINE",
"105 679 OFFCURVE",
"50 648 OFFCURVE",
"10 630 CURVE",
"13 603 LINE",
"66 608 OFFCURVE",
"68 601 OFFCURVE",
"70 553 CURVE SMOOTH",
"75 411 OFFCURVE",
"76 200 OFFCURVE",
"72 57 CURVE SMOOTH",
"71 21 OFFCURVE",
"65 22 OFFCURVE",
"35 9 CURVE",
"35 -16 LINE"
);
}
);
width = 227;
}
);
unicode = 006C;
},
{
color = 4;
glyphname = l_strok;
lastChange = "2020-02-10 12:02:19 +0000";
layers = (
{
layerId = "4253F1EF-A5B5-4BB5-BE01-BA7FF064837C";
paths = (
{
closed = 1;
nodes = (
"360 622 OFFCURVE",
"295 653 OFFCURVE",
"263 690 CURVE",
"178 617 LINE",
"191 599 LINE",
"251 630 OFFCURVE",
"294 569 OFFCURVE",
"294 519 CURVE SMOOTH",
"294 435 OFFCURVE",
"248 382 OFFCURVE",
"153 334 CURVE",
"153 421 OFFCURVE",
"153 509 OFFCURVE",
"154 572 CURVE SMOOTH",
"155 634 OFFCURVE",
"157 644 OFFCURVE",
"164 701 CURVE",
"151 710 LINE",
"105 679 OFFCURVE",
"50 648 OFFCURVE",
"10 630 CURVE",
"13 603 LINE",
"66 608 OFFCURVE",
"68 601 OFFCURVE",
"70 553 CURVE SMOOTH",
"75 411 OFFCURVE",
"76 200 OFFCURVE",
"72 57 CURVE SMOOTH",
"71 21 OFFCURVE",
"65 22 OFFCURVE",
"35 9 CURVE",
"35 -16 LINE",
"85 -10 OFFCURVE",
"151 2 OFFCURVE",
"217 1 CURVE",
"217 29 LINE",
"175 31 OFFCURVE",
"156 30 OFFCURVE",
"155 63 CURVE SMOOTH",
"154 110 OFFCURVE",
"153 206 OFFCURVE",
"153 308 CURVE",
"263 344 OFFCURVE",
"360 419 OFFCURVE",
"360 543 CURVE SMOOTH"
);
}
);
width = 365;
}
);
leftMetricsKey = l;
},
{
color = 4;
glyphname = m;
lastChange = "2020-02-10 12:13:49 +0000";
layers = (
{
anchors = (
{
name = bottom;
position = "{394, 25}";
},
{
name = top;
position = "{394, 397}";
}
);
layerId = "4253F1EF-A5B5-4BB5-BE01-BA7FF064837C";
paths = (
{
closed = 1;
nodes = (
"197 -1 LINE",
"197 22 LINE",
"170 34 OFFCURVE",
"163 38 OFFCURVE",
"163 90 CURVE SMOOTH",
"163 293 LINE",
"188 323 OFFCURVE",
"214 342 OFFCURVE",
"256 342 CURVE SMOOTH",
"315 342 OFFCURVE",
"346 302 OFFCURVE",
"346 236 CURVE SMOOTH",
"346 92 LINE SMOOTH",
"346 30 OFFCURVE",
"344 33 OFFCURVE",
"287 27 CURVE",
"287 0 LINE",
"488 0 LINE",
"488 27 LINE",
"428 30 OFFCURVE",
"430 27 OFFCURVE",
"430 92 CURVE SMOOTH",
"430 285 LINE",
"466 330 OFFCURVE",
"500 342 OFFCURVE",
"526 342 CURVE SMOOTH",
"592 342 OFFCURVE",
"626 313 OFFCURVE",
"626 186 CURVE SMOOTH",
"626 64 OFFCURVE",
"617 44 OFFCURVE",
"572 23 CURVE",
"572 0 LINE",
"763 0 LINE",
"763 29 LINE",
"707 31 OFFCURVE",
"700 34 OFFCURVE",
"700 84 CURVE SMOOTH",
"700 131 OFFCURVE",
"704 195 OFFCURVE",
"703 262 CURVE SMOOTH",
"702 350 OFFCURVE",
"667 400 OFFCURVE",
"570 400 CURVE SMOOTH",
"513 400 OFFCURVE",
"455 360 OFFCURVE",
"427 320 CURVE",
"413 371 OFFCURVE",
"376 400 OFFCURVE",
"300 400 CURVE SMOOTH",
"243 400 OFFCURVE",
"190 363 OFFCURVE",
"163 328 CURVE",
"161 400 LINE",
"139 411 LINE",
"99 392 OFFCURVE",
"60 371 OFFCURVE",
"20 356 CURVE",
"20 328 LINE",
"65 328 OFFCURVE",
"79 306 OFFCURVE",
"79 275 CURVE SMOOTH",
"79 160 LINE SMOOTH",
"79 36 OFFCURVE",
"77 37 OFFCURVE",
"46 30 CURVE SMOOTH",
"27 26 LINE",
"27 -1 LINE"
);
}
);
width = 778;
}
);
leftMetricsKey = n;
rightMetricsKey = n;
unicode = 006D;
},
{
color = 4;
glyphname = m_macr;
lastChange = "2020-02-10 12:13:54 +0000";
layers = (
{
anchors = (
{
name = bottom;
position = "{394, 25}";
},
{
name = top;
position = "{394, 397}";
}
);
layerId = "4253F1EF-A5B5-4BB5-BE01-BA7FF064837C";
paths = (
{
closed = 1;
nodes = (
"172 528 OFFCURVE",
"190 553 OFFCURVE",
"212 553 CURVE SMOOTH",
"243 553 OFFCURVE",
"367 530 OFFCURVE",
"387 530 CURVE SMOOTH",
"393 530 OFFCURVE",
"458 602 OFFCURVE",
"472 625 CURVE",
"444 633 LINE",
"432 618 OFFCURVE",
"400 588 OFFCURVE",
"379 588 CURVE SMOOTH",
"347 588 OFFCURVE",
"235 604 OFFCURVE",
"195 604 CURVE SMOOTH",
"189 604 OFFCURVE",
"143 543 OFFCURVE",
"129 520 CURVE",
"158 511 LINE"
);
},
{
closed = 1;
nodes = (
"197 -1 LINE",
"197 22 LINE",
"170 34 OFFCURVE",
"163 38 OFFCURVE",
"163 90 CURVE SMOOTH",
"163 293 LINE",
"188 323 OFFCURVE",
"214 342 OFFCURVE",
"256 342 CURVE SMOOTH",
"315 342 OFFCURVE",
"346 302 OFFCURVE",
"346 236 CURVE SMOOTH",
"346 92 LINE SMOOTH",
"346 30 OFFCURVE",
"344 33 OFFCURVE",
"287 27 CURVE",
"287 0 LINE",
"488 0 LINE",
"488 27 LINE",
"428 30 OFFCURVE",
"430 27 OFFCURVE",
"430 92 CURVE SMOOTH",
"430 285 LINE",
"466 330 OFFCURVE",
"500 342 OFFCURVE",
"526 342 CURVE SMOOTH",
"592 342 OFFCURVE",
"626 313 OFFCURVE",
"626 186 CURVE SMOOTH",
"626 64 OFFCURVE",
"617 44 OFFCURVE",
"572 23 CURVE",
"572 0 LINE",
"763 0 LINE",
"763 29 LINE",
"707 31 OFFCURVE",
"700 34 OFFCURVE",
"700 84 CURVE SMOOTH",
"700 131 OFFCURVE",
"704 195 OFFCURVE",
"703 262 CURVE SMOOTH",
"702 350 OFFCURVE",
"667 400 OFFCURVE",
"570 400 CURVE SMOOTH",
"513 400 OFFCURVE",
"455 360 OFFCURVE",
"427 320 CURVE",
"413 371 OFFCURVE",
"376 400 OFFCURVE",
"300 400 CURVE SMOOTH",
"243 400 OFFCURVE",
"190 363 OFFCURVE",
"163 328 CURVE",
"161 400 LINE",
"139 411 LINE",
"99 392 OFFCURVE",
"60 371 OFFCURVE",
"20 356 CURVE",
"20 328 LINE",
"65 328 OFFCURVE",
"79 306 OFFCURVE",
"79 275 CURVE SMOOTH",
"79 160 LINE SMOOTH",
"79 36 OFFCURVE",
"77 37 OFFCURVE",
"46 30 CURVE SMOOTH",
"27 26 LINE",
"27 -1 LINE"
);
}
);
width = 778;
}
);
leftMetricsKey = m;
rightMetricsKey = m;
},
{
color = 4;
glyphname = n;
lastChange = "2020-02-10 12:13:26 +0000";
layers = (
{
anchors = (
{
name = bottom;
position = "{252, 25}";
},
{
name = top;
position = "{252, 397}";
}
);
layerId = "4253F1EF-A5B5-4BB5-BE01-BA7FF064837C";
paths = (
{
closed = 1;
nodes = (
"433 118 OFFCURVE",
"436 201 OFFCURVE",
"438 269 CURVE SMOOTH",
"440 354 OFFCURVE",
"406 401 OFFCURVE",
"320 401 CURVE SMOOTH",
"263 401 OFFCURVE",
"192 356 OFFCURVE",
"154 330 CURVE",
"152 406 LINE",
"140 414 LINE",
"100 389 OFFCURVE",
"60 363 OFFCURVE",
"20 346 CURVE",
"20 322 LINE",
"68 328 OFFCURVE",
"79 326 OFFCURVE",
"79 285 CURVE SMOOTH",
"79 81 LINE SMOOTH",
"79 31 OFFCURVE",
"80 30 OFFCURVE",
"32 22 CURVE",
"32 -3 LINE",
"85 1 OFFCURVE",
"138 0 OFFCURVE",
"193 0 CURVE",
"193 22 LINE",
"163 36 OFFCURVE",
"159 33 OFFCURVE",
"159 105 CURVE SMOOTH",
"159 292 LINE",
"194 325 OFFCURVE",
"226 342 OFFCURVE",
"267 342 CURVE SMOOTH",
"327 342 OFFCURVE",
"359 305 OFFCURVE",
"359 214 CURVE SMOOTH",
"359 87 OFFCURVE",
"358 34 OFFCURVE",
"319 16 CURVE",
"319 -10 LINE",
"370 -3 OFFCURVE",
"443 -2 OFFCURVE",
"504 2 CURVE",
"504 31 LINE",
"443 30 OFFCURVE",
"433 45 OFFCURVE",
"433 90 CURVE SMOOTH"
);
}
);
width = 519;
}
);
unicode = 006E;
},
{
color = 4;
glyphname = o;
lastChange = "2020-01-30 15:38:37 +0000";
layers = (
{
anchors = (
{
name = bottom;
position = "{217, 95}";
},
{
name = center;
position = "{217, 281}";
},
{
name = ogonek;
position = "{392, 104}";
},
{
name = top;
position = "{217, 467}";
},
{
name = topright;
position = "{417, 467}";
}
);
layerId = "4253F1EF-A5B5-4BB5-BE01-BA7FF064837C";
paths = (
{
closed = 1;
nodes = (
"306 -10 OFFCURVE",
"417 92 OFFCURVE",
"417 201 CURVE SMOOTH",
"417 328 OFFCURVE",
"332 401 OFFCURVE",
"216 401 CURVE SMOOTH",
"125 401 OFFCURVE",
"25 304 OFFCURVE",
"25 192 CURVE SMOOTH",
"25 70 OFFCURVE",
"108 -10 OFFCURVE",
"224 -10 CURVE SMOOTH"
);
},
{
closed = 1;
nodes = (
"173 47 OFFCURVE",
"94 119 OFFCURVE",
"94 232 CURVE SMOOTH",
"94 299 OFFCURVE",
"128 346 OFFCURVE",
"184 346 CURVE SMOOTH",
"272 346 OFFCURVE",
"348 264 OFFCURVE",
"348 162 CURVE SMOOTH",
"348 94 OFFCURVE",
"313 47 OFFCURVE",
"255 47 CURVE SMOOTH"
);
}
);
width = 442;
}
);
unicode = 006F;
},
{
color = 4;
glyphname = o_macr;
lastChange = "2020-02-10 12:14:03 +0000";
layers = (
{
anchors = (
{
name = bottom;
position = "{217, 95}";
},
{
name = center;
position = "{217, 281}";
},
{
name = ogonek;
position = "{392, 104}";
},
{
name = top;
position = "{217, 467}";
},
{
name = topright;
position = "{417, 467}";
}
);
layerId = "4253F1EF-A5B5-4BB5-BE01-BA7FF064837C";
paths = (
{
closed = 1;
nodes = (
"119 526 OFFCURVE",
"125 532 OFFCURVE",
"147 532 CURVE SMOOTH",
"178 532 OFFCURVE",
"214 527 OFFCURVE",
"253 521 CURVE",
"259 521 OFFCURVE",
"327 575 OFFCURVE",
"361 598 CURVE",
"336 610 LINE",
"314 600 OFFCURVE",
"272 594 OFFCURVE",
"251 594 CURVE SMOOTH",
"219 594 OFFCURVE",
"194 603 OFFCURVE",
"164 604 CURVE",
"144 586 OFFCURVE",
"100 551 OFFCURVE",
"76 528 CURVE",
"105 519 LINE"
);
},
{
closed = 1;
nodes = (
"306 -10 OFFCURVE",
"417 92 OFFCURVE",
"417 201 CURVE SMOOTH",
"417 328 OFFCURVE",
"332 401 OFFCURVE",
"216 401 CURVE SMOOTH",
"125 401 OFFCURVE",
"25 304 OFFCURVE",
"25 192 CURVE SMOOTH",
"25 70 OFFCURVE",
"108 -10 OFFCURVE",
"224 -10 CURVE SMOOTH"
);
},
{
closed = 1;
nodes = (
"173 47 OFFCURVE",
"94 119 OFFCURVE",
"94 232 CURVE SMOOTH",
"94 299 OFFCURVE",
"128 346 OFFCURVE",
"184 346 CURVE SMOOTH",
"272 346 OFFCURVE",
"348 264 OFFCURVE",
"348 162 CURVE SMOOTH",
"348 94 OFFCURVE",
"313 47 OFFCURVE",
"255 47 CURVE SMOOTH"
);
}
);
width = 442;
}
);
leftMetricsKey = o;
rightMetricsKey = o;
unicode = 014D;
},
{
color = 4;
glyphname = p;
lastChange = "2020-02-10 12:14:14 +0000";
layers = (
{
anchors = (
{
name = bottom;
position = "{239, 25}";
},
{
name = top;
position = "{239, 397}";
}
);
layerId = "4253F1EF-A5B5-4BB5-BE01-BA7FF064837C";
paths = (
{
closed = 1;
nodes = (
"227 -300 LINE",
"227 -272 LINE",
"171 -263 LINE SMOOTH",
"150 -260 OFFCURVE",
"143 -259 OFFCURVE",
"143 -243 CURVE SMOOTH",
"143 -9 LINE",
"162 2 OFFCURVE",
"209 0 OFFCURVE",
"233 0 CURVE SMOOTH",
"335 0 OFFCURVE",
"459 72 OFFCURVE",
"459 210 CURVE SMOOTH",
"459 338 OFFCURVE",
"366 399 OFFCURVE",
"254 399 CURVE SMOOTH",
"235 399 OFFCURVE",
"173 365 OFFCURVE",
"144 346 CURVE",
"144 412 LINE",
"122 425 LINE",
"83 393 OFFCURVE",
"44 364 OFFCURVE",
"10 346 CURVE",
"10 319 LINE",
"52 319 OFFCURVE",
"58 296 OFFCURVE",
"59 255 CURVE SMOOTH",
"63 96 OFFCURVE",
"64 -47 OFFCURVE",
"59 -206 CURVE SMOOTH",
"58 -238 OFFCURVE",
"54 -263 OFFCURVE",
"27 -271 CURVE SMOOTH",
"11 -276 LINE",
"11 -300 LINE"
);
},
{
closed = 1;
nodes = (
"187 38 OFFCURVE",
"166 41 OFFCURVE",
"143 46 CURVE",
"144 316 LINE",
"170 325 OFFCURVE",
"195 336 OFFCURVE",
"233 336 CURVE SMOOTH",
"308 336 OFFCURVE",
"375 283 OFFCURVE",
"375 189 CURVE SMOOTH",
"375 99 OFFCURVE",
"308 38 OFFCURVE",
"227 38 CURVE SMOOTH"
);
}
);
width = 484;
}
);
rightMetricsKey = o;
unicode = 0070;
},
{
color = 4;
glyphname = p_bardes;
lastChange = "2020-02-10 12:14:29 +0000";
layers = (
{
anchors = (
{
name = bottom;
position = "{261, 25}";
},
{
name = top;
position = "{261, 397}";
}
);
layerId = "4253F1EF-A5B5-4BB5-BE01-BA7FF064837C";
paths = (
{
closed = 1;
nodes = (
"357 0 OFFCURVE",
"481 72 OFFCURVE",
"481 210 CURVE SMOOTH",
"481 338 OFFCURVE",
"388 399 OFFCURVE",
"276 399 CURVE SMOOTH",
"257 399 OFFCURVE",
"195 365 OFFCURVE",
"166 346 CURVE",
"166 412 LINE",
"144 425 LINE",
"105 393 OFFCURVE",
"66 364 OFFCURVE",
"32 346 CURVE",
"32 319 LINE",
"74 319 OFFCURVE",
"80 296 OFFCURVE",
"81 255 CURVE SMOOTH",
"84 120 OFFCURVE",
"86 -4 OFFCURVE",
"83 -135 CURVE",
"74 -132 OFFCURVE",
"65 -129 OFFCURVE",
"57 -125 CURVE",
"10 -160 LINE",
"5 -169 LINE",
"25 -180 OFFCURVE",
"51 -189 OFFCURVE",
"81 -196 CURVE",
"81 -206 LINE SMOOTH",
"80 -238 OFFCURVE",
"76 -263 OFFCURVE",
"49 -271 CURVE SMOOTH",
"33 -276 LINE",
"33 -300 LINE",
"249 -300 LINE",
"249 -272 LINE",
"193 -263 LINE SMOOTH",
"172 -260 OFFCURVE",
"165 -259 OFFCURVE",
"165 -243 CURVE SMOOTH",
"165 -209 LINE",
"242 -218 OFFCURVE",
"325 -219 OFFCURVE",
"376 -213 CURVE",
"385 -184 LINE",
"381 -181 LINE",
"327 -184 OFFCURVE",
"244 -177 OFFCURVE",
"165 -159 CURVE",
"165 -9 LINE",
"184 2 OFFCURVE",
"231 0 OFFCURVE",
"255 0 CURVE SMOOTH"
);
},
{
closed = 1;
nodes = (
"192 325 OFFCURVE",
"217 336 OFFCURVE",
"255 336 CURVE SMOOTH",
"330 336 OFFCURVE",
"397 283 OFFCURVE",
"397 189 CURVE SMOOTH",
"397 99 OFFCURVE",
"330 38 OFFCURVE",
"249 38 CURVE SMOOTH",
"209 38 OFFCURVE",
"188 41 OFFCURVE",
"165 46 CURVE",
"166 316 LINE"
);
}
);
width = 506;
}
);
rightMetricsKey = p;
unicode = A750;
},
{
color = 4;
glyphname = p_flour;
lastChange = "2020-02-10 12:14:41 +0000";
layers = (
{
anchors = (
{
name = bottom;
position = "{250, 25}";
},
{
name = top;
position = "{250, 397}";
}
);
layerId = "4253F1EF-A5B5-4BB5-BE01-BA7FF064837C";
paths = (
{
closed = 1;
nodes = (
"246 399 OFFCURVE",
"184 365 OFFCURVE",
"155 346 CURVE",
"155 412 LINE",
"133 425 LINE",
"94 393 OFFCURVE",
"55 364 OFFCURVE",
"21 346 CURVE",
"21 319 LINE",
"63 319 OFFCURVE",
"69 296 OFFCURVE",
"70 255 CURVE SMOOTH",
"72 169 OFFCURVE",
"73 88 OFFCURVE",
"73 6 CURVE",
"-65 -30 OFFCURVE",
"-170 -73 OFFCURVE",
"-170 -105 CURVE SMOOTH",
"-170 -126 OFFCURVE",
"-127 -164 OFFCURVE",
"-109 -188 CURVE",
"-84 -177 LINE",
"-113 -115 OFFCURVE",
"-76 -65 OFFCURVE",
"73 -23 CURVE",
"73 -83 OFFCURVE",
"72 -143 OFFCURVE",
"70 -206 CURVE SMOOTH",
"69 -238 OFFCURVE",
"65 -263 OFFCURVE",
"38 -271 CURVE SMOOTH",
"22 -276 LINE",
"22 -300 LINE",
"238 -300 LINE",
"238 -272 LINE",
"182 -263 LINE SMOOTH",
"161 -260 OFFCURVE",
"154 -259 OFFCURVE",
"154 -243 CURVE SMOOTH",
"154 -9 LINE",
"173 2 OFFCURVE",
"220 0 OFFCURVE",
"244 0 CURVE SMOOTH",
"346 0 OFFCURVE",
"470 72 OFFCURVE",
"470 210 CURVE SMOOTH",
"470 338 OFFCURVE",
"377 399 OFFCURVE",
"265 399 CURVE SMOOTH"
);
},
{
closed = 1;
nodes = (
"198 38 OFFCURVE",
"177 41 OFFCURVE",
"154 46 CURVE",
"155 316 LINE",
"181 325 OFFCURVE",
"206 336 OFFCURVE",
"244 336 CURVE SMOOTH",
"319 336 OFFCURVE",
"386 283 OFFCURVE",
"386 189 CURVE SMOOTH",
"386 99 OFFCURVE",
"319 38 OFFCURVE",
"238 38 CURVE SMOOTH"
);
}
);
width = 495;
}
);
rightMetricsKey = o;
unicode = A753;
},
{
color = 4;
glyphname = p_macr;
lastChange = "2020-02-10 12:14:46 +0000";
layers = (
{
anchors = (
{
name = bottom;
position = "{239, 25}";
},
{
name = top;
position = "{239, 397}";
}
);
layerId = "4253F1EF-A5B5-4BB5-BE01-BA7FF064837C";
paths = (
{
closed = 1;
nodes = (
"70 502 OFFCURVE",
"111 533 OFFCURVE",
"133 533 CURVE SMOOTH",
"164 533 OFFCURVE",
"230 512 OFFCURVE",
"269 512 CURVE SMOOTH",
"275 512 OFFCURVE",
"355 584 OFFCURVE",
"376 607 CURVE",
"351 620 LINE",
"339 615 OFFCURVE",
"295 579 OFFCURVE",
"274 579 CURVE SMOOTH",
"242 579 OFFCURVE",
"181 596 OFFCURVE",
"141 596 CURVE SMOOTH",
"135 596 OFFCURVE",
"47 530 OFFCURVE",
"33 507 CURVE",
"56 495 LINE"
);
},
{
closed = 1;
nodes = (
"227 -300 LINE",
"227 -272 LINE",
"171 -263 LINE SMOOTH",
"150 -260 OFFCURVE",
"143 -259 OFFCURVE",
"143 -243 CURVE SMOOTH",
"143 -9 LINE",
"162 2 OFFCURVE",
"223 1 OFFCURVE",
"247 1 CURVE SMOOTH",
"349 1 OFFCURVE",
"471 72 OFFCURVE",
"471 200 CURVE SMOOTH",
"471 330 OFFCURVE",
"378 399 OFFCURVE",
"273 399 CURVE SMOOTH",
"227 399 OFFCURVE",
"173 368 OFFCURVE",
"144 338 CURVE",
"131 398 LINE",
"112 405 LINE",
"81 388 OFFCURVE",
"44 374 OFFCURVE",
"10 356 CURVE",
"10 329 LINE",
"52 329 OFFCURVE",
"58 306 OFFCURVE",
"59 265 CURVE SMOOTH",
"63 106 OFFCURVE",
"64 -47 OFFCURVE",
"59 -206 CURVE SMOOTH",
"58 -238 OFFCURVE",
"54 -263 OFFCURVE",
"27 -271 CURVE SMOOTH",
"11 -276 LINE",
"11 -300 LINE"
);
},
{
closed = 1;
nodes = (
"195 38 OFFCURVE",
"166 41 OFFCURVE",
"143 46 CURVE",
"144 297 LINE",
"166 327 OFFCURVE",
"203 347 OFFCURVE",
"245 347 CURVE SMOOTH",
"329 347 OFFCURVE",
"389 288 OFFCURVE",
"389 192 CURVE SMOOTH",
"389 98 OFFCURVE",
"316 38 OFFCURVE",
"235 38 CURVE SMOOTH"
);
}
);
width = 496;
}
);
leftMetricsKey = p;
rightMetricsKey = p;
},
{
color = 4;
glyphname = q;
lastChange = "2020-02-10 12:15:05 +0000";
layers = (
{
anchors = (
{
name = bottom;
position = "{248, 25}";
},
{
name = top;
position = "{248, 397}";
}
);
layerId = "4253F1EF-A5B5-4BB5-BE01-BA7FF064837C";
paths = (
{
closed = 1;
nodes = (
"434 -256 OFFCURVE",
"428 -233 OFFCURVE",
"428 -206 CURVE SMOOTH",
"428 284 LINE SMOOTH",
"428 325 OFFCURVE",
"433 370 OFFCURVE",
"439 408 CURVE",
"416 416 LINE",
"376 376 LINE",
"328 397 OFFCURVE",
"267 400 OFFCURVE",
"221 400 CURVE SMOOTH",
"200 400 OFFCURVE",
"69 315 OFFCURVE",
"52 286 CURVE SMOOTH",
"35 258 OFFCURVE",
"25 215 OFFCURVE",
"25 176 CURVE SMOOTH",
"25 49 OFFCURVE",
"106 -9 OFFCURVE",
"212 -9 CURVE SMOOTH",
"237 -9 OFFCURVE",
"303 43 OFFCURVE",
"348 79 CURVE",
"349 -221 LINE SMOOTH",
"349 -256 OFFCURVE",
"341 -256 OFFCURVE",
"320 -261 CURVE SMOOTH",
"273 -272 LINE",
"273 -300 LINE",
"476 -300 LINE",
"476 -272 LINE",
"460 -266 LINE SMOOTH"
);
},
{
closed = 1;
nodes = (
"152 60 OFFCURVE",
"94 109 OFFCURVE",
"94 202 CURVE SMOOTH",
"94 282 OFFCURVE",
"155 345 OFFCURVE",
"226 345 CURVE SMOOTH",
"301 345 OFFCURVE",
"343 279 OFFCURVE",
"348 196 CURVE",
"348 125 LINE",
"319 88 OFFCURVE",
"277 60 OFFCURVE",
"228 60 CURVE SMOOTH"
);
}
);
width = 496;
}
);
leftMetricsKey = o;
unicode = 0071;
},
{
color = 4;
glyphname = q_bardes;
lastChange = "2020-01-30 15:38:37 +0000";
layers = (
{
anchors = (
{
name = bottom;
position = "{248, 25}";
},
{
name = top;
position = "{248, 397}";
}
);
layerId = "4253F1EF-A5B5-4BB5-BE01-BA7FF064837C";
paths = (
{
closed = 1;
nodes = (
"428 -181 LINE",
"447 -175 OFFCURVE",
"463 -171 OFFCURVE",
"476 -167 CURVE",
"472 -137 LINE",
"467 -136 LINE",
"456 -142 OFFCURVE",
"442 -148 OFFCURVE",
"428 -154 CURVE",
"428 284 LINE SMOOTH",
"428 325 OFFCURVE",
"433 370 OFFCURVE",
"439 408 CURVE",
"416 416 LINE",
"376 376 LINE",
"328 397 OFFCURVE",
"267 400 OFFCURVE",
"221 400 CURVE SMOOTH",
"200 400 OFFCURVE",
"69 315 OFFCURVE",
"52 286 CURVE SMOOTH",
"35 258 OFFCURVE",
"25 215 OFFCURVE",
"25 176 CURVE SMOOTH",
"25 49 OFFCURVE",
"106 -9 OFFCURVE",
"212 -9 CURVE SMOOTH",
"237 -9 OFFCURVE",
"303 43 OFFCURVE",
"348 79 CURVE",
"349 -178 LINE",
"286 -195 OFFCURVE",
"214 -208 OFFCURVE",
"150 -222 CURVE",
"122 -264 LINE",
"121 -274 LINE",
"182 -253 OFFCURVE",
"271 -226 OFFCURVE",
"349 -203 CURVE",
"349 -221 LINE SMOOTH",
"349 -256 OFFCURVE",
"341 -256 OFFCURVE",
"320 -261 CURVE SMOOTH",
"273 -272 LINE",
"273 -300 LINE",
"476 -300 LINE",
"476 -272 LINE",
"460 -266 LINE SMOOTH",
"434 -256 OFFCURVE",
"428 -233 OFFCURVE",
"428 -206 CURVE SMOOTH"
);
},
{
closed = 1;
nodes = (
"152 60 OFFCURVE",
"94 109 OFFCURVE",
"94 202 CURVE SMOOTH",
"94 282 OFFCURVE",
"155 345 OFFCURVE",
"226 345 CURVE SMOOTH",
"301 345 OFFCURVE",
"343 279 OFFCURVE",
"348 196 CURVE",
"348 125 LINE",
"319 88 OFFCURVE",
"277 60 OFFCURVE",
"228 60 CURVE SMOOTH"
);
}
);
width = 501;
}
);
unicode = A757;
},
{
color = 4;
glyphname = q_etfin;
lastChange = "2020-02-10 12:14:56 +0000";
layers = (
{
anchors = (
{
name = bottom;
position = "{248, 25}";
},
{
name = top;
position = "{248, 397}";
}
);
layerId = "4253F1EF-A5B5-4BB5-BE01-BA7FF064837C";
paths = (
{
closed = 1;
nodes = (
"428 284 LINE SMOOTH",
"428 325 OFFCURVE",
"433 370 OFFCURVE",
"439 408 CURVE",
"416 416 LINE",
"376 376 LINE",
"328 397 OFFCURVE",
"267 400 OFFCURVE",
"221 400 CURVE SMOOTH",
"200 400 OFFCURVE",
"69 315 OFFCURVE",
"52 286 CURVE SMOOTH",
"35 258 OFFCURVE",
"25 215 OFFCURVE",
"25 176 CURVE SMOOTH",
"25 49 OFFCURVE",
"106 -9 OFFCURVE",
"212 -9 CURVE SMOOTH",
"237 -9 OFFCURVE",
"303 43 OFFCURVE",
"348 79 CURVE",
"349 -221 LINE SMOOTH",
"349 -256 OFFCURVE",
"341 -256 OFFCURVE",
"320 -261 CURVE SMOOTH",
"273 -272 LINE",
"273 -300 LINE",
"476 -300 LINE",
"476 -272 LINE",
"460 -266 LINE SMOOTH",
"434 -256 OFFCURVE",
"428 -233 OFFCURVE",
"428 -206 CURVE SMOOTH"
);
},
{
closed = 1;
nodes = (
"557 245 OFFCURVE",
"599 294 OFFCURVE",
"599 311 CURVE SMOOTH",
"599 342 OFFCURVE",
"573 380 OFFCURVE",
"519 380 CURVE",
"469 327 LINE",
"469 314 LINE",
"489 314 OFFCURVE",
"518 293 OFFCURVE",
"518 255 CURVE SMOOTH",
"518 206 OFFCURVE",
"471 172 OFFCURVE",
"429 161 CURVE",
"436 133 LINE",
"443 138 OFFCURVE",
"465 143 OFFCURVE",
"469 143 CURVE SMOOTH",
"508 143 OFFCURVE",
"555 123 OFFCURVE",
"555 64 CURVE SMOOTH",
"555 30 OFFCURVE",
"512 -4 OFFCURVE",
"484 -31 CURVE",
"508 -53 LINE",
"552 -5 OFFCURVE",
"626 72 OFFCURVE",
"626 108 CURVE SMOOTH",
"626 163 OFFCURVE",
"586 190 OFFCURVE",
"533 207 CURVE"
);
},
{
closed = 1;
nodes = (
"152 60 OFFCURVE",
"94 109 OFFCURVE",
"94 202 CURVE SMOOTH",
"94 282 OFFCURVE",
"155 345 OFFCURVE",
"226 345 CURVE SMOOTH",
"301 345 OFFCURVE",
"343 279 OFFCURVE",
"348 196 CURVE",
"348 125 LINE",
"319 88 OFFCURVE",
"277 60 OFFCURVE",
"228 60 CURVE SMOOTH"
);
}
);
width = 631;
}
);
leftMetricsKey = q;
rightMetricsKey = z;
},
{
color = 4;
glyphname = q_ra;
lastChange = "2020-02-10 12:15:09 +0000";
layers = (
{
anchors = (
{
name = bottom;
position = "{248, 25}";
},
{
name = top;
position = "{248, 397}";
}
);
layerId = "4253F1EF-A5B5-4BB5-BE01-BA7FF064837C";
paths = (
{
closed = 1;
nodes = (
"159 491 OFFCURVE",
"176 516 OFFCURVE",
"205 553 CURVE",
"209 516 OFFCURVE",
"227 491 OFFCURVE",
"268 491 CURVE SMOOTH",
"328 491 OFFCURVE",
"380 600 OFFCURVE",
"428 600 CURVE SMOOTH",
"445 600 OFFCURVE",
"445 589 OFFCURVE",
"447 565 CURVE",
"478 580 LINE",
"471 609 OFFCURVE",
"464 634 OFFCURVE",
"431 634 CURVE SMOOTH",
"396 634 OFFCURVE",
"332 563 OFFCURVE",
"298 563 CURVE SMOOTH",
"259 563 OFFCURVE",
"255 597 OFFCURVE",
"265 650 CURVE",
"248 654 LINE",
"211 599 OFFCURVE",
"171 560 OFFCURVE",
"141 560 CURVE SMOOTH",
"112 560 OFFCURVE",
"91 591 OFFCURVE",
"111 650 CURVE",
"94 654 LINE",
"79 629 OFFCURVE",
"50 580 OFFCURVE",
"50 571 CURVE SMOOTH",
"50 525 OFFCURVE",
"67 491 OFFCURVE",
"114 491 CURVE SMOOTH"
);
},
{
closed = 1;
nodes = (
"428 284 LINE SMOOTH",
"428 325 OFFCURVE",
"433 370 OFFCURVE",
"439 408 CURVE",
"416 416 LINE",
"376 376 LINE",
"328 397 OFFCURVE",
"267 400 OFFCURVE",
"221 400 CURVE SMOOTH",
"200 400 OFFCURVE",
"69 315 OFFCURVE",
"52 286 CURVE SMOOTH",
"35 258 OFFCURVE",
"25 215 OFFCURVE",
"25 176 CURVE SMOOTH",
"25 49 OFFCURVE",
"106 -9 OFFCURVE",
"212 -9 CURVE SMOOTH",
"237 -9 OFFCURVE",
"303 43 OFFCURVE",
"348 79 CURVE",
"349 -221 LINE SMOOTH",
"349 -256 OFFCURVE",
"341 -256 OFFCURVE",
"320 -261 CURVE SMOOTH",
"273 -272 LINE",
"273 -300 LINE",
"476 -300 LINE",
"476 -272 LINE",
"460 -266 LINE SMOOTH",
"434 -256 OFFCURVE",
"428 -233 OFFCURVE",
"428 -206 CURVE SMOOTH"
);
},
{
closed = 1;
nodes = (
"152 60 OFFCURVE",
"94 109 OFFCURVE",
"94 202 CURVE SMOOTH",
"94 282 OFFCURVE",
"155 345 OFFCURVE",
"226 345 CURVE SMOOTH",
"301 345 OFFCURVE",
"343 279 OFFCURVE",
"348 196 CURVE",
"348 125 LINE",
"319 88 OFFCURVE",
"277 60 OFFCURVE",
"228 60 CURVE SMOOTH"
);
}
);
width = 498;
}
);
leftMetricsKey = q;
rightMetricsKey = q;
},
{
color = 4;
glyphname = q_bardes_ra;
lastChange = "2020-02-10 12:15:22 +0000";
layers = (
{
anchors = (
{
name = bottom;
position = "{248, 25}";
},
{
name = top;
position = "{248, 397}";
}
);
layerId = "4253F1EF-A5B5-4BB5-BE01-BA7FF064837C";
paths = (
{
closed = 1;
nodes = (
"396 634 OFFCURVE",
"332 563 OFFCURVE",
"298 563 CURVE SMOOTH",
"259 563 OFFCURVE",
"255 597 OFFCURVE",
"265 650 CURVE",
"248 654 LINE",
"211 599 OFFCURVE",
"171 560 OFFCURVE",
"141 560 CURVE SMOOTH",
"112 560 OFFCURVE",
"91 591 OFFCURVE",
"111 650 CURVE",
"94 654 LINE",
"79 629 OFFCURVE",
"50 580 OFFCURVE",
"50 571 CURVE SMOOTH",
"50 525 OFFCURVE",
"67 491 OFFCURVE",
"114 491 CURVE SMOOTH",
"159 491 OFFCURVE",
"176 516 OFFCURVE",
"205 553 CURVE",
"209 516 OFFCURVE",
"227 491 OFFCURVE",
"268 491 CURVE SMOOTH",
"328 491 OFFCURVE",
"380 600 OFFCURVE",
"428 600 CURVE SMOOTH",
"455 600 OFFCURVE",
"453 579 OFFCURVE",
"455 555 CURVE",
"486 570 LINE",
"487 609 OFFCURVE",
"464 634 OFFCURVE",
"431 634 CURVE SMOOTH"
);
},
{
closed = 1;
nodes = (
"472 -137 LINE",
"467 -136 LINE",
"456 -142 OFFCURVE",
"442 -148 OFFCURVE",
"428 -154 CURVE",
"428 284 LINE SMOOTH",
"428 325 OFFCURVE",
"433 370 OFFCURVE",
"439 408 CURVE",
"416 416 LINE",
"376 376 LINE",
"328 397 OFFCURVE",
"267 400 OFFCURVE",
"221 400 CURVE SMOOTH",
"200 400 OFFCURVE",
"69 315 OFFCURVE",
"52 286 CURVE SMOOTH",
"35 258 OFFCURVE",
"25 215 OFFCURVE",
"25 176 CURVE SMOOTH",
"25 49 OFFCURVE",
"106 -9 OFFCURVE",
"212 -9 CURVE SMOOTH",
"237 -9 OFFCURVE",
"303 43 OFFCURVE",
"348 79 CURVE",
"349 -178 LINE",
"286 -195 OFFCURVE",
"214 -208 OFFCURVE",
"150 -222 CURVE",
"122 -264 LINE",
"121 -274 LINE",
"182 -253 OFFCURVE",
"271 -226 OFFCURVE",
"349 -203 CURVE",
"349 -221 LINE SMOOTH",
"349 -256 OFFCURVE",
"341 -256 OFFCURVE",
"320 -261 CURVE SMOOTH",
"273 -272 LINE",
"273 -300 LINE",
"476 -300 LINE",
"476 -272 LINE",
"460 -266 LINE SMOOTH",
"434 -256 OFFCURVE",
"428 -233 OFFCURVE",
"428 -206 CURVE SMOOTH",
"428 -181 LINE",
"447 -175 OFFCURVE",
"463 -171 OFFCURVE",
"476 -167 CURVE"
);
},
{
closed = 1;
nodes = (
"152 60 OFFCURVE",
"94 109 OFFCURVE",
"94 202 CURVE SMOOTH",
"94 282 OFFCURVE",
"155 345 OFFCURVE",
"226 345 CURVE SMOOTH",
"301 345 OFFCURVE",
"343 279 OFFCURVE",
"348 196 CURVE",
"348 125 LINE",
"319 88 OFFCURVE",
"277 60 OFFCURVE",
"228 60 CURVE SMOOTH"
);
}
);
width = 501;
}
);
leftMetricsKey = q;
},
{
color = 4;
glyphname = q_strok;
lastChange = "2020-01-30 15:38:37 +0000";
layers = (
{
anchors = (
{
name = bottom;
position = "{248, 25}";
},
{
name = top;
position = "{248, 397}";
}
);
layerId = "4253F1EF-A5B5-4BB5-BE01-BA7FF064837C";
paths = (
{
closed = 1;
nodes = (
"680 274 OFFCURVE",
"605 346 OFFCURVE",
"538 346 CURVE SMOOTH",
"528 346 OFFCURVE",
"472 305 OFFCURVE",
"428 269 CURVE",
"428 284 LINE SMOOTH",
"428 325 OFFCURVE",
"433 370 OFFCURVE",
"439 408 CURVE",
"416 416 LINE",
"376 376 LINE",
"328 397 OFFCURVE",
"267 400 OFFCURVE",
"221 400 CURVE SMOOTH",
"200 400 OFFCURVE",
"69 315 OFFCURVE",
"52 286 CURVE SMOOTH",
"35 258 OFFCURVE",
"25 215 OFFCURVE",
"25 176 CURVE SMOOTH",
"25 49 OFFCURVE",
"106 -9 OFFCURVE",
"212 -9 CURVE SMOOTH",
"237 -9 OFFCURVE",
"303 43 OFFCURVE",
"348 79 CURVE",
"349 -119 LINE",
"288 -165 OFFCURVE",
"220 -214 OFFCURVE",
"149 -265 CURVE",
"167 -293 LINE",
"221 -255 OFFCURVE",
"285 -210 OFFCURVE",
"349 -162 CURVE",
"349 -221 LINE SMOOTH",
"349 -256 OFFCURVE",
"341 -256 OFFCURVE",
"320 -261 CURVE SMOOTH",
"273 -272 LINE",
"273 -300 LINE",
"476 -300 LINE",
"476 -272 LINE",
"460 -266 LINE SMOOTH",
"434 -256 OFFCURVE",
"428 -233 OFFCURVE",
"428 -206 CURVE SMOOTH",
"428 -101 LINE",
"563 8 OFFCURVE",
"680 124 OFFCURVE",
"680 209 CURVE SMOOTH"
);
},
{
closed = 1;
nodes = (
"152 60 OFFCURVE",
"94 109 OFFCURVE",
"94 202 CURVE SMOOTH",
"94 282 OFFCURVE",
"155 345 OFFCURVE",
"226 345 CURVE SMOOTH",
"301 345 OFFCURVE",
"343 279 OFFCURVE",
"348 196 CURVE",
"348 125 LINE",
"319 88 OFFCURVE",
"277 60 OFFCURVE",
"228 60 CURVE SMOOTH"
);
},
{
closed = 1;
nodes = (
"453 256 OFFCURVE",
"469 258 OFFCURVE",
"498 258 CURVE SMOOTH",
"537 258 OFFCURVE",
"583 231 OFFCURVE",
"583 180 CURVE SMOOTH",
"583 102 OFFCURVE",
"522 26 OFFCURVE",
"428 -55 CURVE",
"428 233 LINE"
);
}
);
width = 705;
}
);
leftMetricsKey = q;
rightMetricsKey = o;
},
{
color = 4;
glyphname = r;
lastChange = "2020-02-10 12:22:02 +0000";
layers = (
{
anchors = (
{
name = bottom;
position = "{148, 25}";
},
{
name = top;
position = "{148, 397}";
}
);
layerId = "4253F1EF-A5B5-4BB5-BE01-BA7FF064837C";
paths = (
{
closed = 1;
nodes = (
"150 305 LINE",
"147 407 LINE",
"135 411 LINE",
"95 386 OFFCURVE",
"60 361 OFFCURVE",
"20 346 CURVE",
"20 318 LINE",
"65 318 OFFCURVE",
"79 296 OFFCURVE",
"79 265 CURVE SMOOTH",
"79 86 LINE SMOOTH",
"79 38 OFFCURVE",
"79 32 OFFCURVE",
"50 19 CURVE",
"50 -5 LINE",
"91 -2 OFFCURVE",
"146 1 OFFCURVE",
"220 0 CURVE",
"220 27 LINE",
"156 35 OFFCURVE",
"159 32 OFFCURVE",
"159 77 CURVE SMOOTH",
"159 268 LINE",
"185 305 OFFCURVE",
"206 324 OFFCURVE",
"228 324 CURVE SMOOTH",
"249 324 OFFCURVE",
"273 315 OFFCURVE",
"273 315 CURVE",
"313 385 LINE",
"313 390 LINE",
"249 410 OFFCURVE",
"233 398 OFFCURVE",
"202 363 CURVE SMOOTH"
);
}
);
width = 318;
}
);
leftMetricsKey = n;
unicode = 0072;
},
{
color = 4;
glyphname = s;
lastChange = "2020-02-10 12:21:48 +0000";
layers = (
{
anchors = (
{
name = bottom;
position = "{168, 25}";
},
{
name = top;
position = "{168, 397}";
}
);
layerId = "4253F1EF-A5B5-4BB5-BE01-BA7FF064837C";
paths = (
{
closed = 1;
nodes = (
"271 -10 OFFCURVE",
"319 46 OFFCURVE",
"319 116 CURVE SMOOTH",
"319 193 OFFCURVE",
"263 214 OFFCURVE",
"191 234 CURVE SMOOTH",
"126 252 OFFCURVE",
"100 273 OFFCURVE",
"100 312 CURVE SMOOTH",
"100 339 OFFCURVE",
"123 367 OFFCURVE",
"164 367 CURVE SMOOTH",
"209 367 OFFCURVE",
"246 342 OFFCURVE",
"260 294 CURVE",
"282 294 LINE",
"282 385 LINE",
"271 389 OFFCURVE",
"227 400 OFFCURVE",
"185 400 CURVE SMOOTH",
"101 400 OFFCURVE",
"25 356 OFFCURVE",
"25 278 CURVE SMOOTH",
"25 209 OFFCURVE",
"79 187 OFFCURVE",
"141 171 CURVE SMOOTH",
"210 153 OFFCURVE",
"243 132 OFFCURVE",
"243 87 CURVE SMOOTH",
"243 53 OFFCURVE",
"209 19 OFFCURVE",
"164 19 CURVE SMOOTH",
"102 19 OFFCURVE",
"75 61 OFFCURVE",
"64 104 CURVE",
"35 105 LINE",
"35 12 LINE",
"75 -2 OFFCURVE",
"110 -10 OFFCURVE",
"168 -10 CURVE SMOOTH"
);
}
);
width = 344;
}
);
unicode = 0073;
},
{
color = 4;
glyphname = longs;
lastChange = "2020-02-10 12:22:17 +0000";
layers = (
{
anchors = (
{
name = bottom;
position = "{138, 25}";
},
{
name = top;
position = "{138, 397}";
}
);
layerId = "4253F1EF-A5B5-4BB5-BE01-BA7FF064837C";
paths = (
{
closed = 1;
nodes = (
"254 0 LINE",
"254 23 LINE",
"190 30 LINE SMOOTH",
"176 32 OFFCURVE",
"170 40 OFFCURVE",
"170 54 CURVE SMOOTH",
"170 136 OFFCURVE",
"163 603 OFFCURVE",
"183 629 CURVE SMOOTH",
"197 647 OFFCURVE",
"220 660 OFFCURVE",
"252 660 CURVE SMOOTH",
"291 660 OFFCURVE",
"321 647 OFFCURVE",
"351 629 CURVE",
"369 647 OFFCURVE",
"382 669 OFFCURVE",
"387 689 CURVE",
"384 704 OFFCURVE",
"348 710 OFFCURVE",
"312 710 CURVE SMOOTH",
"234 710 OFFCURVE",
"185 672 OFFCURVE",
"153 642 CURVE SMOOTH",
"125 615 OFFCURVE",
"104 592 OFFCURVE",
"101 583 CURVE SMOOTH",
"84 532 OFFCURVE",
"90 437 OFFCURVE",
"88 372 CURVE",
"33 372 LINE",
"33 346 LINE",
"87 317 LINE",
"86 54 LINE SMOOTH",
"86 40 OFFCURVE",
"78 32 OFFCURVE",
"64 30 CURVE SMOOTH",
"15 23 LINE",
"15 0 LINE"
);
}
);
width = 267;
}
);
unicode = 017F;
},
{
color = 4;
glyphname = longs_f;
lastChange = "2020-02-10 12:22:34 +0000";
layers = (
{
layerId = "4253F1EF-A5B5-4BB5-BE01-BA7FF064837C";
paths = (
{
closed = 1;
nodes = (
"563 710 OFFCURVE",
"510 675 OFFCURVE",
"478 645 CURVE",
"478 647 LINE",
"439 672 OFFCURVE",
"382 700 OFFCURVE",
"325 700 CURVE SMOOTH",
"287 700 OFFCURVE",
"222 679 OFFCURVE",
"182 656 CURVE SMOOTH",
"140 632 OFFCURVE",
"106 597 OFFCURVE",
"103 588 CURVE SMOOTH",
"86 537 OFFCURVE",
"92 442 OFFCURVE",
"90 377 CURVE",
"23 341 LINE",
"23 317 LINE",
"87 317 LINE",
"86 56 LINE SMOOTH",
"86 42 OFFCURVE",
"78 34 OFFCURVE",
"64 32 CURVE SMOOTH",
"15 25 LINE",
"15 0 LINE",
"254 0 LINE",
"254 25 LINE",
"190 32 LINE SMOOTH",
"176 34 OFFCURVE",
"170 42 OFFCURVE",
"170 56 CURVE SMOOTH",
"170 213 OFFCURVE",
"168 541 OFFCURVE",
"178 588 CURVE SMOOTH",
"188 634 OFFCURVE",
"232 652 OFFCURVE",
"267 652 CURVE SMOOTH",
"305 652 OFFCURVE",
"419 647 OFFCURVE",
"417 545 CURVE SMOOTH",
"414 377 LINE",
"349 341 LINE",
"349 317 LINE",
"413 317 LINE",
"412 54 LINE SMOOTH",
"412 40 OFFCURVE",
"404 32 OFFCURVE",
"390 30 CURVE SMOOTH",
"341 23 LINE",
"341 0 LINE",
"580 0 LINE",
"580 23 LINE",
"516 30 LINE SMOOTH",
"502 32 OFFCURVE",
"496 40 OFFCURVE",
"496 54 CURVE SMOOTH",
"496 328 LINE",
"600 328 LINE",
"603 372 LINE",
"496 372 LINE",
"497 482 OFFCURVE",
"499 580 OFFCURVE",
"504 615 CURVE SMOOTH",
"507 637 OFFCURVE",
"556 660 OFFCURVE",
"588 660 CURVE SMOOTH",
"627 660 OFFCURVE",
"647 647 OFFCURVE",
"677 629 CURVE",
"693 644 OFFCURVE",
"712 669 OFFCURVE",
"713 689 CURVE",
"702 699 OFFCURVE",
"674 710 OFFCURVE",
"638 710 CURVE SMOOTH"
);
}
);
width = 598;
}
);
leftMetricsKey = longs;
},
{
color = 4;
glyphname = longs_longs;
lastChange = "2020-02-10 12:22:51 +0000";
layers = (
{
anchors = (
{
name = bottom;
position = "{464, 25}";
},
{
name = top;
position = "{464, 397}";
}
);
layerId = "4253F1EF-A5B5-4BB5-BE01-BA7FF064837C";
paths = (
{
closed = 1;
nodes = (
"563 710 OFFCURVE",
"510 675 OFFCURVE",
"478 645 CURVE",
"478 647 LINE",
"439 672 OFFCURVE",
"382 700 OFFCURVE",
"325 700 CURVE SMOOTH",
"287 700 OFFCURVE",
"222 679 OFFCURVE",
"182 656 CURVE SMOOTH",
"140 632 OFFCURVE",
"106 597 OFFCURVE",
"103 588 CURVE SMOOTH",
"86 537 OFFCURVE",
"92 442 OFFCURVE",
"90 377 CURVE",
"23 341 LINE",
"23 317 LINE",
"87 317 LINE",
"86 56 LINE SMOOTH",
"86 42 OFFCURVE",
"78 34 OFFCURVE",
"64 32 CURVE SMOOTH",
"15 25 LINE",
"15 0 LINE",
"254 0 LINE",
"254 25 LINE",
"190 32 LINE SMOOTH",
"176 34 OFFCURVE",
"170 42 OFFCURVE",
"170 56 CURVE SMOOTH",
"170 213 OFFCURVE",
"168 541 OFFCURVE",
"178 588 CURVE SMOOTH",
"188 634 OFFCURVE",
"232 652 OFFCURVE",
"267 652 CURVE SMOOTH",
"305 652 OFFCURVE",
"419 647 OFFCURVE",
"417 545 CURVE SMOOTH",
"414 377 LINE",
"349 341 LINE",
"349 317 LINE",
"413 317 LINE",
"412 54 LINE SMOOTH",
"412 40 OFFCURVE",
"404 32 OFFCURVE",
"390 30 CURVE SMOOTH",
"341 23 LINE",
"341 0 LINE",
"580 0 LINE",
"580 23 LINE",
"516 30 LINE SMOOTH",
"502 32 OFFCURVE",
"496 40 OFFCURVE",
"496 54 CURVE SMOOTH",
"496 212 OFFCURVE",
"494 544 OFFCURVE",
"504 615 CURVE SMOOTH",
"507 637 OFFCURVE",
"556 660 OFFCURVE",
"588 660 CURVE SMOOTH",
"627 660 OFFCURVE",
"647 647 OFFCURVE",
"677 629 CURVE",
"693 644 OFFCURVE",
"712 669 OFFCURVE",
"713 689 CURVE",
"702 699 OFFCURVE",
"674 710 OFFCURVE",
"638 710 CURVE SMOOTH"
);
}
);
width = 588;
}
);
leftMetricsKey = longs;
},
{
color = 4;
glyphname = longs_strok;
lastChange = "2020-02-10 12:23:02 +0000";
layers = (
{
anchors = (
{
name = bottom;
position = "{138, 25}";
},
{
name = top;
position = "{138, 397}";
}
);
layerId = "4253F1EF-A5B5-4BB5-BE01-BA7FF064837C";
paths = (
{
closed = 1;
nodes = (
"215 396 OFFCURVE",
"190 381 OFFCURVE",
"169 370 CURVE",
"170 498 OFFCURVE",
"173 616 OFFCURVE",
"183 629 CURVE SMOOTH",
"197 647 OFFCURVE",
"220 660 OFFCURVE",
"252 660 CURVE SMOOTH",
"291 660 OFFCURVE",
"321 647 OFFCURVE",
"351 629 CURVE",
"369 647 OFFCURVE",
"382 669 OFFCURVE",
"387 689 CURVE",
"384 704 OFFCURVE",
"348 710 OFFCURVE",
"312 710 CURVE SMOOTH",
"234 710 OFFCURVE",
"185 672 OFFCURVE",
"153 642 CURVE SMOOTH",
"125 615 OFFCURVE",
"104 592 OFFCURVE",
"101 583 CURVE SMOOTH",
"84 532 OFFCURVE",
"90 437 OFFCURVE",
"88 372 CURVE",
"33 372 LINE",
"33 346 LINE",
"87 317 LINE",
"86 150 LINE",
"65 139 OFFCURVE",
"43 129 OFFCURVE",
"22 119 CURVE",
"16 73 LINE",
"38 72 LINE",
"44 83 OFFCURVE",
"61 97 OFFCURVE",
"86 114 CURVE",
"86 54 LINE SMOOTH",
"86 40 OFFCURVE",
"78 32 OFFCURVE",
"64 30 CURVE SMOOTH",
"15 23 LINE",
"15 0 LINE",
"254 0 LINE",
"254 23 LINE",
"190 30 LINE SMOOTH",
"176 32 OFFCURVE",
"170 40 OFFCURVE",
"170 54 CURVE SMOOTH",
"170 73 OFFCURVE",
"170 114 OFFCURVE",
"169 166 CURVE",
"260 221 OFFCURVE",
"365 286 OFFCURVE",
"365 333 CURVE SMOOTH",
"365 386 OFFCURVE",
"274 403 OFFCURVE",
"235 403 CURVE"
);
},
{
closed = 1;
nodes = (
"169 343 LINE",
"239 370 OFFCURVE",
"290 360 OFFCURVE",
"290 314 CURVE SMOOTH",
"290 278 OFFCURVE",
"237 236 OFFCURVE",
"169 195 CURVE"
);
}
);
width = 392;
}
);
leftMetricsKey = longs;
},
{
color = 4;
glyphname = longs_t;
lastChange = "2020-02-10 12:31:48 +0000";
layers = (
{
anchors = (
{
name = bottom;
position = "{138, 25}";
},
{
name = center;
position = "{437, 211}";
},
{
name = top;
position = "{138, 397}";
},
{
name = topright;
position = "{556, 397}";
}
);
layerId = "4253F1EF-A5B5-4BB5-BE01-BA7FF064837C";
paths = (
{
closed = 1;
nodes = (
"449 354 LINE",
"553 354 LINE",
"556 390 LINE",
"450 390 LINE",
"454 674 LINE",
"445 690 OFFCURVE",
"425 699 OFFCURVE",
"400 704 CURVE SMOOTH",
"386 708 OFFCURVE",
"365 710 OFFCURVE",
"345 710 CURVE SMOOTH",
"267 710 OFFCURVE",
"185 672 OFFCURVE",
"153 642 CURVE SMOOTH",
"125 615 OFFCURVE",
"104 592 OFFCURVE",
"101 583 CURVE SMOOTH",
"84 532 OFFCURVE",
"90 437 OFFCURVE",
"88 372 CURVE",
"33 372 LINE",
"33 346 LINE",
"87 317 LINE",
"86 54 LINE SMOOTH",
"86 40 OFFCURVE",
"78 32 OFFCURVE",
"64 30 CURVE SMOOTH",
"15 23 LINE",
"15 0 LINE",
"254 0 LINE",
"254 23 LINE",
"190 30 LINE SMOOTH",
"176 32 OFFCURVE",
"170 40 OFFCURVE",
"170 54 CURVE SMOOTH",
"170 136 OFFCURVE",
"168 573 OFFCURVE",
"182 603 CURVE SMOOTH",
"196 634 OFFCURVE",
"221 669 OFFCURVE",
"277 669 CURVE SMOOTH",
"326 669 OFFCURVE",
"350 658 OFFCURVE",
"377 642 CURVE",
"383 573 OFFCURVE",
"382 516 OFFCURVE",
"380 456 CURVE SMOOTH",
"378 407 OFFCURVE",
"371 396 OFFCURVE",
"342 376 CURVE SMOOTH",
"337 373 OFFCURVE",
"332 370 OFFCURVE",
"326 368 CURVE",
"326 354 LINE",
"369 354 LINE",
"369 75 LINE SMOOTH",
"369 30 OFFCURVE",
"411 -10 OFFCURVE",
"435 -10 CURVE SMOOTH",
"477 -10 OFFCURVE",
"514 13 OFFCURVE",
"554 37 CURVE",
"551 58 LINE",
"448 46 OFFCURVE",
"449 63 OFFCURVE",
"449 130 CURVE SMOOTH"
);
}
);
width = 566;
}
);
leftMetricsKey = longs;
rightMetricsKey = t;
},
{
color = 4;
glyphname = t;
lastChange = "2020-02-10 12:23:24 +0000";
layers = (
{
anchors = (
{
name = bottom;
position = "{131, 25}";
},
{
name = center;
position = "{131, 211}";
},
{
name = top;
position = "{131, 397}";
},
{
name = topright;
position = "{250, 397}";
}
);
layerId = "4253F1EF-A5B5-4BB5-BE01-BA7FF064837C";
paths = (
{
closed = 1;
nodes = (
"171 -10 OFFCURVE",
"208 13 OFFCURVE",
"248 37 CURVE",
"245 58 LINE",
"142 46 OFFCURVE",
"143 63 OFFCURVE",
"143 130 CURVE SMOOTH",
"143 354 LINE",
"247 354 LINE",
"250 390 LINE",
"143 390 LINE",
"144 469 LINE",
"130 469 LINE",
"102 437 OFFCURVE",
"64 386 OFFCURVE",
"20 368 CURVE",
"20 354 LINE",
"63 354 LINE",
"63 75 LINE SMOOTH",
"63 30 OFFCURVE",
"105 -10 OFFCURVE",
"129 -10 CURVE SMOOTH"
);
}
);
width = 260;
}
);
unicode = 0074;
},
{
color = 4;
glyphname = t_acute;
lastChange = "2020-02-10 12:24:25 +0000";
layers = (
{
anchors = (
{
name = bottom;
position = "{135, 25}";
},
{
name = center;
position = "{135, 211}";
},
{
name = top;
position = "{135, 397}";
},
{
name = topright;
position = "{254, 397}";
}
);
layerId = "4253F1EF-A5B5-4BB5-BE01-BA7FF064837C";
paths = (
{
closed = 1;
nodes = (
"391 468 OFFCURVE",
"476 499 OFFCURVE",
"476 578 CURVE SMOOTH",
"476 600 OFFCURVE",
"471 627 OFFCURVE",
"436 652 CURVE",
"433 652 LINE",
"391 583 LINE",
"392 580 LINE",
"403 575 OFFCURVE",
"412 568 OFFCURVE",
"412 554 CURVE SMOOTH",
"412 529 OFFCURVE",
"378 502 OFFCURVE",
"318 491 CURVE",
"318 549 OFFCURVE",
"287 592 OFFCURVE",
"223 592 CURVE SMOOTH",
"219 592 OFFCURVE",
"176 562 OFFCURVE",
"165 554 CURVE",
"166 550 LINE",
"220 546 OFFCURVE",
"273 497 OFFCURVE",
"229 475 CURVE",
"229 465 LINE"
);
},
{
closed = 1;
nodes = (
"185 -10 OFFCURVE",
"254 48 OFFCURVE",
"294 87 CURVE",
"287 106 LINE",
"273 98 OFFCURVE",
"218 60 OFFCURVE",
"182 60 CURVE SMOOTH",
"156 60 OFFCURVE",
"147 72 OFFCURVE",
"147 97 CURVE SMOOTH",
"147 353 LINE",
"291 353 LINE",
"294 390 LINE",
"147 390 LINE",
"148 479 LINE",
"134 479 LINE",
"106 437 OFFCURVE",
"64 405 OFFCURVE",
"20 367 CURVE",
"20 353 LINE",
"63 353 LINE",
"63 63 LINE SMOOTH",
"63 37 OFFCURVE",
"99 -10 OFFCURVE",
"143 -10 CURVE SMOOTH"
);
}
);
width = 486;
}
);
leftMetricsKey = t;
unicode = E6E2;
},
{
color = 4;
glyphname = u;
lastChange = "2020-02-10 11:53:45 +0000";
layers = (
{
anchors = (
{
name = bottom;
position = "{232, 25}";
},
{
name = ogonek;
position = "{425, 34}";
},
{
name = top;
position = "{232, 397}";
},
{
name = topright;
position = "{455, 397}";
}
);
layerId = "4253F1EF-A5B5-4BB5-BE01-BA7FF064837C";
paths = (
{
closed = 1;
nodes = (
"405 320 LINE SMOOTH",
"405 346 OFFCURVE",
"408 368 OFFCURVE",
"412 393 CURVE",
"405 398 LINE",
"354 390 OFFCURVE",
"306 389 OFFCURVE",
"256 389 CURVE",
"256 364 LINE",
"294 356 LINE SMOOTH",
"315 352 OFFCURVE",
"325 340 OFFCURVE",
"325 318 CURVE SMOOTH",
"325 94 LINE",
"301 70 OFFCURVE",
"260 55 OFFCURVE",
"219 55 CURVE SMOOTH",
"163 55 OFFCURVE",
"143 83 OFFCURVE",
"143 133 CURVE SMOOTH",
"143 320 LINE SMOOTH",
"143 346 OFFCURVE",
"147 372 OFFCURVE",
"155 387 CURVE",
"143 400 LINE",
"97 386 OFFCURVE",
"57 371 OFFCURVE",
"15 359 CURVE",
"15 334 LINE",
"43 331 OFFCURVE",
"63 314 OFFCURVE",
"63 283 CURVE SMOOTH",
"63 111 LINE SMOOTH",
"63 41 OFFCURVE",
"83 -9 OFFCURVE",
"177 -9 CURVE SMOOTH",
"221 -9 OFFCURVE",
"285 24 OFFCURVE",
"330 64 CURVE",
"336 -5 LINE",
"347 -9 LINE",
"373 2 OFFCURVE",
"409 16 OFFCURVE",
"443 31 CURVE",
"443 54 LINE",
"413 61 OFFCURVE",
"405 69 OFFCURVE",
"405 95 CURVE SMOOTH"
);
}
);
width = 473;
}
);
unicode = 0075;
},
{
color = 4;
glyphname = u_macr;
lastChange = "2020-02-10 12:24:44 +0000";
layers = (
{
anchors = (
{
name = bottom;
position = "{232, 25}";
},
{
name = ogonek;
position = "{425, 34}";
},
{
name = top;
position = "{232, 397}";
},
{
name = topright;
position = "{455, 397}";
}
);
layerId = "4253F1EF-A5B5-4BB5-BE01-BA7FF064837C";
paths = (
{
closed = 1;
nodes = (
"231 544 OFFCURVE",
"332 633 OFFCURVE",
"351 653 CURVE",
"332 668 LINE",
"245 607 OFFCURVE",
"212 618 OFFCURVE",
"147 631 CURVE",
"116 612 OFFCURVE",
"83 579 OFFCURVE",
"51 553 CURVE",
"77 539 LINE",
"136 579 OFFCURVE",
"162 570 OFFCURVE",
"219 542 CURVE"
);
},
{
closed = 1;
nodes = (
"405 320 LINE SMOOTH",
"405 346 OFFCURVE",
"408 368 OFFCURVE",
"412 393 CURVE",
"405 398 LINE",
"354 390 OFFCURVE",
"306 389 OFFCURVE",
"256 389 CURVE",
"256 364 LINE",
"294 356 LINE SMOOTH",
"315 352 OFFCURVE",
"325 340 OFFCURVE",
"325 318 CURVE SMOOTH",
"325 94 LINE",
"301 70 OFFCURVE",
"260 55 OFFCURVE",
"219 55 CURVE SMOOTH",
"163 55 OFFCURVE",
"143 83 OFFCURVE",
"143 133 CURVE SMOOTH",
"143 320 LINE SMOOTH",
"143 346 OFFCURVE",
"147 372 OFFCURVE",
"155 387 CURVE",
"143 400 LINE",
"97 386 OFFCURVE",
"57 371 OFFCURVE",
"15 359 CURVE",
"15 334 LINE",
"43 331 OFFCURVE",
"63 314 OFFCURVE",
"63 283 CURVE SMOOTH",
"63 111 LINE SMOOTH",
"63 41 OFFCURVE",
"83 -9 OFFCURVE",
"177 -9 CURVE SMOOTH",
"221 -9 OFFCURVE",
"285 24 OFFCURVE",
"330 64 CURVE",
"336 -5 LINE",
"347 -9 LINE",
"373 2 OFFCURVE",
"409 16 OFFCURVE",
"443 31 CURVE",
"443 54 LINE",
"413 61 OFFCURVE",
"405 69 OFFCURVE",
"405 95 CURVE SMOOTH"
);
}
);
width = 473;
}
);
leftMetricsKey = u;
rightMetricsKey = u;
unicode = 016B;
},
{
color = 4;
glyphname = v;
lastChange = "2020-02-10 12:27:46 +0000";
layers = (
{
layerId = "4253F1EF-A5B5-4BB5-BE01-BA7FF064837C";
paths = (
{
closed = 1;
nodes = (
"143 305 LINE",
"126 335 OFFCURVE",
"106 363 OFFCURVE",
"84 390 CURVE",
"-25 389 LINE",
"-25 361 LINE",
"58 337 OFFCURVE",
"157 126 OFFCURVE",
"175 0 CURVE",
"203 0 LINE",
"314 126 OFFCURVE",
"394 204 OFFCURVE",
"394 295 CURVE SMOOTH",
"394 390 OFFCURVE",
"322 401 OFFCURVE",
"247 400 CURVE"
);
},
{
closed = 1;
nodes = (
"212 159 OFFCURVE",
"188 221 OFFCURVE",
"159 276 CURVE",
"188 310 OFFCURVE",
"215 322 OFFCURVE",
"243 322 CURVE SMOOTH",
"284 322 OFFCURVE",
"315 297 OFFCURVE",
"315 241 CURVE SMOOTH",
"315 190 OFFCURVE",
"296 145 OFFCURVE",
"234 86 CURVE"
);
}
);
width = 419;
}
);
unicode = 0076;
},
{
color = 6;
glyphname = v.ss01;
lastChange = "2020-02-10 12:27:57 +0000";
layers = (
{
layerId = "4253F1EF-A5B5-4BB5-BE01-BA7FF064837C";
paths = (
{
closed = 1;
nodes = (
"223 0 LINE",
"380 310 LINE SMOOTH",
"389 328 OFFCURVE",
"407 352 OFFCURVE",
"424 362 CURVE",
"424 389 LINE",
"293 389 LINE",
"293 362 LINE",
"333 357 OFFCURVE",
"346 345 OFFCURVE",
"335 321 CURVE SMOOTH",
"234 93 LINE",
"126 324 LINE SMOOTH",
"114 349 OFFCURVE",
"135 361 OFFCURVE",
"178 361 CURVE",
"178 389 LINE",
"-5 389 LINE",
"-5 361 LINE",
"21 347 OFFCURVE",
"30 323 OFFCURVE",
"36 312 CURVE SMOOTH",
"195 0 LINE"
);
}
);
width = 429;
}
);
},
{
color = 6;
glyphname = w;
lastChange = "2020-02-10 12:28:11 +0000";
layers = (
{
layerId = "4253F1EF-A5B5-4BB5-BE01-BA7FF064837C";
paths = (
{
closed = 1;
nodes = (
"195 -1 LINE",
"309 261 LINE",
"427 -1 LINE",
"452 -1 LINE",
"590 311 LINE SMOOTH",
"598 329 OFFCURVE",
"616 353 OFFCURVE",
"633 363 CURVE",
"633 390 LINE",
"502 390 LINE",
"502 363 LINE",
"542 358 OFFCURVE",
"555 348 OFFCURVE",
"545 322 CURVE SMOOTH",
"466 112 LINE",
"348 390 LINE",
"320 390 LINE",
"204 109 LINE",
"116 325 LINE SMOOTH",
"106 350 OFFCURVE",
"125 362 OFFCURVE",
"168 362 CURVE",
"168 390 LINE",
"-15 390 LINE",
"-15 362 LINE",
"11 348 OFFCURVE",
"21 324 OFFCURVE",
"26 313 CURVE SMOOTH",
"170 -1 LINE"
);
}
);
width = 638;
}
);
unicode = 0077;
},
{
color = 4;
glyphname = x;
lastChange = "2020-02-10 12:26:23 +0000";
layers = (
{
anchors = (
{
name = bottom;
position = "{221, 11}";
},
{
name = top;
position = "{221, 398}";
}
);
layerId = "4253F1EF-A5B5-4BB5-BE01-BA7FF064837C";
paths = (
{
closed = 1;
nodes = (
"262 216 LINE",
"360 317 LINE SMOOTH",
"389 347 OFFCURVE",
"413 360 OFFCURVE",
"428 361 CURVE",
"428 390 LINE",
"275 390 LINE",
"275 361 LINE",
"315 355 OFFCURVE",
"319 338 OFFCURVE",
"304 320 CURVE SMOOTH",
"240 242 LINE",
"168 328 LINE SMOOTH",
"152 347 OFFCURVE",
"174 356 OFFCURVE",
"195 361 CURVE",
"195 390 LINE",
"9 390 LINE",
"9 361 LINE",
"33 355 OFFCURVE",
"43 340 OFFCURVE",
"73 306 CURVE SMOOTH",
"180 183 LINE",
"98 100 LINE SMOOTH",
"42 44 OFFCURVE",
"20 28 OFFCURVE",
"5 28 CURVE",
"5 -1 LINE",
"159 -1 LINE",
"159 28 LINE",
"136 28 OFFCURVE",
"117 51 OFFCURVE",
"138 78 CURVE SMOOTH",
"202 158 LINE",
"269 82 LINE SMOOTH",
"297 51 OFFCURVE",
"265 31 OFFCURVE",
"251 29 CURVE",
"251 0 LINE",
"437 0 LINE",
"437 32 LINE",
"421 32 OFFCURVE",
"401 49 OFFCURVE",
"372 84 CURVE SMOOTH"
);
}
);
width = 442;
}
);
unicode = 0078;
},
{
color = 4;
glyphname = y;
lastChange = "2020-02-10 12:26:28 +0000";
layers = (
{
anchors = (
{
name = bottom;
position = "{210, 25}";
},
{
name = top;
position = "{210, 397}";
}
);
layerId = "4253F1EF-A5B5-4BB5-BE01-BA7FF064837C";
paths = (
{
closed = 1;
nodes = (
"301 362 LINE",
"339 358 OFFCURVE",
"351 338 OFFCURVE",
"337 315 CURVE SMOOTH",
"192 70 LINE",
"127 322 LINE SMOOTH",
"119 352 OFFCURVE",
"132 358 OFFCURVE",
"171 362 CURVE",
"171 390 LINE",
"5 390 LINE",
"5 362 LINE",
"17 355 OFFCURVE",
"27 347 OFFCURVE",
"36 316 CURVE SMOOTH",
"134 -30 LINE",
"39 -190 LINE",
"71 -207 LINE",
"387 310 LINE SMOOTH",
"397 327 OFFCURVE",
"416 352 OFFCURVE",
"433 362 CURVE",
"433 390 LINE",
"301 390 LINE"
);
}
);
width = 438;
}
);
unicode = 0079;
},
{
color = 4;
glyphname = z;
lastChange = "2020-02-10 12:26:37 +0000";
layers = (
{
anchors = (
{
name = bottom;
position = "{216, 25}";
},
{
name = top;
position = "{216, 397}";
}
);
layerId = "4253F1EF-A5B5-4BB5-BE01-BA7FF064837C";
paths = (
{
closed = 1;
nodes = (
"69 -3 OFFCURVE",
"96 0 OFFCURVE",
"132 0 CURVE SMOOTH",
"372 0 LINE",
"372 116 LINE",
"349 116 LINE",
"342 93 OFFCURVE",
"337 79 OFFCURVE",
"307 79 CURVE SMOOTH",
"133 79 LINE",
"354 327 LINE SMOOTH",
"364 339 OFFCURVE",
"390 363 OFFCURVE",
"415 376 CURVE",
"415 395 LINE",
"306 388 OFFCURVE",
"176 391 OFFCURVE",
"65 391 CURVE",
"5 311 LINE",
"15 298 LINE",
"36 306 OFFCURVE",
"63 313 OFFCURVE",
"102 313 CURVE SMOOTH",
"282 313 LINE",
"25 9 LINE",
"39 -9 LINE"
);
}
);
width = 420;
}
);
unicode = 007A;
},
{
color = 5;
glyphname = alpha;
lastChange = "2020-01-30 15:38:37 +0000";
layers = (
{
layerId = "4253F1EF-A5B5-4BB5-BE01-BA7FF064837C";
paths = (
{
closed = 1;
nodes = (
"445 35 OFFCURVE",
"357 104 OFFCURVE",
"357 200 CURVE SMOOTH",
"357 286 OFFCURVE",
"413 364 OFFCURVE",
"464 396 CURVE",
"476 424 LINE",
"366 453 LINE",
"336 413 OFFCURVE",
"314 368 OFFCURVE",
"306 309 CURVE",
"269 363 OFFCURVE",
"224 400 OFFCURVE",
"170 400 CURVE SMOOTH",
"70 400 OFFCURVE",
"25 286 OFFCURVE",
"25 194 CURVE SMOOTH",
"25 75 OFFCURVE",
"89 -12 OFFCURVE",
"181 -12 CURVE SMOOTH",
"234 -12 OFFCURVE",
"288 34 OFFCURVE",
"331 100 CURVE",
"350 53 OFFCURVE",
"377 12 OFFCURVE",
"413 -9 CURVE",
"561 34 LINE",
"555 61 LINE"
);
},
{
closed = 1;
nodes = (
"115 65 OFFCURVE",
"70 132 OFFCURVE",
"70 184 CURVE SMOOTH",
"70 264 OFFCURVE",
"129 315 OFFCURVE",
"190 315 CURVE SMOOTH",
"218 315 OFFCURVE",
"248 308 OFFCURVE",
"301 265 CURVE",
"301 245 LINE SMOOTH",
"301 215 OFFCURVE",
"306 178 OFFCURVE",
"317 142 CURVE",
"270 87 OFFCURVE",
"232 65 OFFCURVE",
"184 65 CURVE SMOOTH"
);
}
);
width = 566;
}
);
unicode = 03B1;
},
{
color = 5;
glyphname = theta;
lastChange = "2020-02-10 12:29:49 +0000";
layers = (
{
layerId = "4253F1EF-A5B5-4BB5-BE01-BA7FF064837C";
paths = (
{
closed = 1;
nodes = (
"20 78 OFFCURVE",
"60 -9 OFFCURVE",
"118 -9 CURVE SMOOTH",
"165 -9 OFFCURVE",
"212 77 OFFCURVE",
"212 205 CURVE SMOOTH",
"212 313 OFFCURVE",
"195 401 OFFCURVE",
"118 401 CURVE SMOOTH",
"49 401 OFFCURVE",
"20 314 OFFCURVE",
"20 196 CURVE SMOOTH"
);
},
{
closed = 1;
nodes = (
"67 263 OFFCURVE",
"80 317 OFFCURVE",
"116 317 CURVE SMOOTH",
"152 317 OFFCURVE",
"167 276 OFFCURVE",
"168 211 CURVE",
"136 214 OFFCURVE",
"95 214 OFFCURVE",
"65 209 CURVE"
);
},
{
closed = 1;
nodes = (
"96 174 OFFCURVE",
"137 176 OFFCURVE",
"167 174 CURVE",
"163 117 OFFCURVE",
"147 69 OFFCURVE",
"116 69 CURVE SMOOTH",
"83 69 OFFCURVE",
"69 120 OFFCURVE",
"66 172 CURVE"
);
}
);
width = 232;
}
);
unicode = 03B8;
},
{
color = 5;
glyphname = pi;
lastChange = "2020-01-30 15:38:37 +0000";
layers = (
{
layerId = "4253F1EF-A5B5-4BB5-BE01-BA7FF064837C";
paths = (
{
closed = 1;
nodes = (
"635 388 LINE",
"498 390 OFFCURVE",
"152 389 OFFCURVE",
"40 389 CURVE",
"5 293 LINE",
"27 282 LINE",
"52 305 OFFCURVE",
"77 334 OFFCURVE",
"167 339 CURVE SMOOTH",
"175 339 LINE",
"181 227 OFFCURVE",
"178 108 OFFCURVE",
"172 -4 CURVE",
"262 -4 LINE",
"256 106 OFFCURVE",
"260 232 OFFCURVE",
"262 343 CURVE",
"308 344 OFFCURVE",
"354 344 OFFCURVE",
"400 344 CURVE",
"406 247 OFFCURVE",
"407 142 OFFCURVE",
"404 46 CURVE",
"421 10 OFFCURVE",
"462 -18 OFFCURVE",
"462 -9 CURVE",
"522 72 LINE",
"506 91 OFFCURVE",
"484 93 OFFCURVE",
"484 155 CURVE SMOOTH",
"484 214 OFFCURVE",
"485 283 OFFCURVE",
"488 343 CURVE",
"538 343 OFFCURVE",
"587 342 OFFCURVE",
"634 342 CURVE"
);
}
);
width = 640;
}
);
unicode = 03C0;
},
{
color = 5;
glyphname = phi;
lastChange = "2020-01-30 15:38:37 +0000";
layers = (
{
layerId = "4253F1EF-A5B5-4BB5-BE01-BA7FF064837C";
paths = (
{
closed = 1;
nodes = (
"471 307 OFFCURVE",
"379 399 OFFCURVE",
"251 399 CURVE SMOOTH",
"123 399 OFFCURVE",
"20 305 OFFCURVE",
"20 192 CURVE SMOOTH",
"20 76 OFFCURVE",
"96 3 OFFCURVE",
"216 -9 CURVE",
"212 -82 OFFCURVE",
"206 -154 OFFCURVE",
"198 -217 CURVE",
"203 -223 LINE",
"310 -206 LINE",
"308 -180 LINE",
"279 -165 OFFCURVE",
"274 -165 OFFCURVE",
"274 -123 CURVE SMOOTH",
"274 -10 LINE",
"382 1 OFFCURVE",
"471 88 OFFCURVE",
"471 194 CURVE SMOOTH"
);
},
{
closed = 1;
nodes = (
"88 262 OFFCURVE",
"139 320 OFFCURVE",
"218 332 CURVE",
"223 249 OFFCURVE",
"223 146 OFFCURVE",
"219 44 CURVE",
"131 54 OFFCURVE",
"88 111 OFFCURVE",
"88 191 CURVE SMOOTH"
);
},
{
closed = 1;
nodes = (
"405 102 OFFCURVE",
"352 53 OFFCURVE",
"274 44 CURVE",
"274 145 OFFCURVE",
"274 246 OFFCURVE",
"275 332 CURVE",
"355 322 OFFCURVE",
"405 262 OFFCURVE",
"405 181 CURVE SMOOTH"
);
}
);
width = 491;
}
);
unicode = 03C6;
},
{
color = 5;
glyphname = psi;
lastChange = "2020-01-30 15:38:37 +0000";
layers = (
{
layerId = "4253F1EF-A5B5-4BB5-BE01-BA7FF064837C";
paths = (
{
closed = 1;
nodes = (
"617 335 LINE",
"550 186 OFFCURVE",
"482 82 OFFCURVE",
"378 64 CURVE",
"377 274 OFFCURVE",
"384 532 OFFCURVE",
"398 625 CURVE",
"301 625 LINE",
"311 521 OFFCURVE",
"316 286 OFFCURVE",
"314 63 CURVE",
"187 85 OFFCURVE",
"139 237 OFFCURVE",
"94 315 CURVE",
"10 287 LINE",
"18 257 LINE",
"68 279 OFFCURVE",
"119 32 OFFCURVE",
"314 11 CURVE",
"313 -94 OFFCURVE",
"310 -194 OFFCURVE",
"306 -273 CURVE",
"399 -266 LINE",
"401 -239 LINE",
"388 -229 OFFCURVE",
"381 -123 OFFCURVE",
"379 13 CURVE",
"513 35 OFFCURVE",
"608 166 OFFCURVE",
"645 329 CURVE"
);
}
);
width = 655;
}
);
unicode = 03C8;
},
{
color = 5;
glyphname = omega;
lastChange = "2020-01-30 15:38:37 +0000";
layers = (
{
layerId = "4253F1EF-A5B5-4BB5-BE01-BA7FF064837C";
paths = (
{
closed = 1;
nodes = (
"216 -10 OFFCURVE",
"252 25 OFFCURVE",
"281 82 CURVE",
"295 21 OFFCURVE",
"338 -10 OFFCURVE",
"391 -10 CURVE SMOOTH",
"454 -10 OFFCURVE",
"529 81 OFFCURVE",
"527 194 CURVE SMOOTH",
"524 323 OFFCURVE",
"437 404 OFFCURVE",
"300 396 CURVE",
"309 302 LINE",
"384 320 OFFCURVE",
"490 280 OFFCURVE",
"490 166 CURVE SMOOTH",
"490 112 OFFCURVE",
"452 63 OFFCURVE",
"383 63 CURVE SMOOTH",
"346 63 OFFCURVE",
"314 82 OFFCURVE",
"296 114 CURVE",
"317 159 OFFCURVE",
"324 200 OFFCURVE",
"319 234 CURVE",
"254 245 LINE",
"243 234 LINE",
"241 190 OFFCURVE",
"248 149 OFFCURVE",
"266 114 CURVE",
"248 82 OFFCURVE",
"216 64 OFFCURVE",
"179 64 CURVE SMOOTH",
"110 64 OFFCURVE",
"73 112 OFFCURVE",
"73 166 CURVE SMOOTH",
"73 280 OFFCURVE",
"189 318 OFFCURVE",
"246 302 CURVE",
"255 396 LINE",
"143 404 OFFCURVE",
"38 322 OFFCURVE",
"35 183 CURVE SMOOTH",
"32 80 OFFCURVE",
"88 -10 OFFCURVE",
"171 -10 CURVE SMOOTH"
);
}
);
width = 562;
}
);
unicode = 03C9;
},
{
color = 5;
glyphname = omegatonos;
lastChange = "2020-02-10 12:30:12 +0000";
layers = (
{
layerId = "4253F1EF-A5B5-4BB5-BE01-BA7FF064837C";
paths = (
{
closed = 1;
nodes = (
"223 612 OFFCURVE",
"252 640 OFFCURVE",
"288 640 CURVE SMOOTH",
"331 640 OFFCURVE",
"447 590 OFFCURVE",
"496 590 CURVE SMOOTH",
"533 590 OFFCURVE",
"573 612 OFFCURVE",
"594 645 CURVE",
"535 666 LINE",
"516 647 OFFCURVE",
"505 640 OFFCURVE",
"485 640 CURVE SMOOTH",
"437 640 OFFCURVE",
"358 668 OFFCURVE",
"296 668 CURVE SMOOTH",
"253 668 OFFCURVE",
"188 661 OFFCURVE",
"144 614 CURVE",
"194 589 LINE"
);
},
{
closed = 1;
nodes = (
"312 464 OFFCURVE",
"357 502 OFFCURVE",
"357 535 CURVE SMOOTH",
"357 565 OFFCURVE",
"322 597 OFFCURVE",
"280 597 CURVE",
"220 535 LINE",
"223 523 LINE",
"256 535 OFFCURVE",
"277 513 OFFCURVE",
"277 495 CURVE SMOOTH",
"277 477 OFFCURVE",
"273 473 OFFCURVE",
"254 456 CURVE",
"269 444 LINE"
);
},
{
closed = 1;
nodes = (
"216 -10 OFFCURVE",
"252 25 OFFCURVE",
"281 82 CURVE",
"295 21 OFFCURVE",
"338 -10 OFFCURVE",
"391 -10 CURVE SMOOTH",
"454 -10 OFFCURVE",
"529 81 OFFCURVE",
"527 194 CURVE SMOOTH",
"524 323 OFFCURVE",
"437 404 OFFCURVE",
"300 396 CURVE",
"309 302 LINE",
"384 320 OFFCURVE",
"490 280 OFFCURVE",
"490 166 CURVE SMOOTH",
"490 112 OFFCURVE",
"452 63 OFFCURVE",
"383 63 CURVE SMOOTH",
"346 63 OFFCURVE",
"314 82 OFFCURVE",
"296 114 CURVE",
"317 159 OFFCURVE",
"324 200 OFFCURVE",
"319 234 CURVE",
"254 245 LINE",
"243 234 LINE",
"241 190 OFFCURVE",
"248 149 OFFCURVE",
"266 114 CURVE",
"248 82 OFFCURVE",
"216 64 OFFCURVE",
"179 64 CURVE SMOOTH",
"110 64 OFFCURVE",
"73 112 OFFCURVE",
"73 166 CURVE SMOOTH",
"73 280 OFFCURVE",
"189 318 OFFCURVE",
"246 302 CURVE",
"255 396 LINE",
"143 404 OFFCURVE",
"38 322 OFFCURVE",
"35 183 CURVE SMOOTH",
"32 80 OFFCURVE",
"88 -10 OFFCURVE",
"171 -10 CURVE SMOOTH"
);
}
);
width = 584;
}
);
unicode = 03CE;
},
{
color = 10;
glyphname = ampersand;
lastChange = "2020-02-10 12:30:21 +0000";
layers = (
{
layerId = "4253F1EF-A5B5-4BB5-BE01-BA7FF064837C";
paths = (
{
closed = 1;
nodes = (
"351 -10 OFFCURVE",
"409 55 OFFCURVE",
"461 137 CURVE",
"502 70 OFFCURVE",
"542 -10 OFFCURVE",
"632 -10 CURVE SMOOTH",
"704 -10 OFFCURVE",
"732 48 OFFCURVE",
"743 117 CURVE",
"720 124 LINE",
"703 94 OFFCURVE",
"678 84 OFFCURVE",
"655 84 CURVE SMOOTH",
"598 84 OFFCURVE",
"564 163 OFFCURVE",
"528 218 CURVE",
"674 407 LINE SMOOTH",
"692 431 OFFCURVE",
"712 453 OFFCURVE",
"731 456 CURVE",
"731 484 LINE",
"723 483 OFFCURVE",
"594 483 OFFCURVE",
"594 483 CURVE",
"594 455 LINE",
"620 455 OFFCURVE",
"629 444 OFFCURVE",
"618 426 CURVE SMOOTH",
"507 245 LINE",
"465 309 OFFCURVE",
"399 357 OFFCURVE",
"324 383 CURVE",
"379 401 OFFCURVE",
"423 449 OFFCURVE",
"423 495 CURVE SMOOTH",
"423 559 OFFCURVE",
"379 593 OFFCURVE",
"314 593 CURVE SMOOTH",
"233 593 OFFCURVE",
"136 546 OFFCURVE",
"136 461 CURVE SMOOTH",
"136 408 OFFCURVE",
"169 362 OFFCURVE",
"231 348 CURVE",
"145 315 OFFCURVE",
"65 247 OFFCURVE",
"65 156 CURVE SMOOTH",
"65 48 OFFCURVE",
"149 -10 OFFCURVE",
"253 -10 CURVE SMOOTH"
);
},
{
closed = 1;
nodes = (
"247 411 OFFCURVE",
"215 440 OFFCURVE",
"215 485 CURVE SMOOTH",
"215 526 OFFCURVE",
"238 552 OFFCURVE",
"278 552 CURVE SMOOTH",
"319 552 OFFCURVE",
"342 520 OFFCURVE",
"342 480 CURVE SMOOTH",
"342 455 OFFCURVE",
"329 419 OFFCURVE",
"292 393 CURVE"
);
},
{
closed = 1;
nodes = (
"206 54 OFFCURVE",
"160 100 OFFCURVE",
"160 183 CURVE SMOOTH",
"160 251 OFFCURVE",
"198 302 OFFCURVE",
"266 337 CURVE",
"345 321 OFFCURVE",
"406 225 OFFCURVE",
"445 160 CURVE",
"407 110 OFFCURVE",
"355 54 OFFCURVE",
"288 54 CURVE SMOOTH"
);
}
);
width = 788;
}
);
unicode = 0026;
},
{
color = 10;
glyphname = rum;
lastChange = "2020-02-10 12:30:43 +0000";
layers = (
{
layerId = "4253F1EF-A5B5-4BB5-BE01-BA7FF064837C";
paths = (
{
closed = 1;
nodes = (
"207 -264 LINE",
"329 8 LINE",
"368 5 OFFCURVE",
"408 -13 OFFCURVE",
"431 -13 CURVE SMOOTH",
"445 -13 OFFCURVE",
"520 49 OFFCURVE",
"566 84 CURVE",
"549 99 LINE",
"517 85 OFFCURVE",
"487 67 OFFCURVE",
"445 67 CURVE SMOOTH",
"417 67 OFFCURVE",
"377 71 OFFCURVE",
"350 77 CURVE",
"403 221 LINE SMOOTH",
"420 267 OFFCURVE",
"447 310 OFFCURVE",
"507 310 CURVE",
"518 326 LINE",
"490 358 OFFCURVE",
"455 395 OFFCURVE",
"445 395 CURVE SMOOTH",
"412 395 OFFCURVE",
"380 363 OFFCURVE",
"373 332 CURVE SMOOTH",
"353 248 OFFCURVE",
"352 186 OFFCURVE",
"312 79 CURVE",
"225 79 OFFCURVE",
"173 71 OFFCURVE",
"108 63 CURVE",
"162 158 OFFCURVE",
"213 231 OFFCURVE",
"213 289 CURVE SMOOTH",
"213 370 OFFCURVE",
"144 397 OFFCURVE",
"106 397 CURVE SMOOTH",
"96 397 OFFCURVE",
"50 333 OFFCURVE",
"27 309 CURVE",
"40 294 LINE",
"66 306 OFFCURVE",
"82 314 OFFCURVE",
"98 314 CURVE SMOOTH",
"134 314 OFFCURVE",
"145 290 OFFCURVE",
"145 247 CURVE SMOOTH",
"145 184 OFFCURVE",
"90 88 OFFCURVE",
"25 7 CURVE",
"37 -11 LINE",
"113 0 OFFCURVE",
"187 12 OFFCURVE",
"288 10 CURVE",
"245 -85 OFFCURVE",
"185 -167 OFFCURVE",
"133 -255 CURVE",
"133 -264 LINE"
);
}
);
width = 576;
}
);
unicode = A775;
},
{
color = 10;
glyphname = us;
lastChange = "2020-02-10 12:30:59 +0000";
layers = (
{
layerId = "4253F1EF-A5B5-4BB5-BE01-BA7FF064837C";
paths = (
{
closed = 1;
nodes = (
"104 711 OFFCURVE",
"10 606 OFFCURVE",
"10 517 CURVE SMOOTH",
"10 434 OFFCURVE",
"75 357 OFFCURVE",
"166 348 CURVE",
"286 390 LINE",
"267 245 OFFCURVE",
"174 152 OFFCURVE",
"98 65 CURVE",
"97 -9 LINE",
"123 -9 LINE",
"144 55 OFFCURVE",
"374 332 OFFCURVE",
"374 498 CURVE SMOOTH",
"374 631 OFFCURVE",
"289 711 OFFCURVE",
"168 711 CURVE SMOOTH"
);
},
{
closed = 1;
nodes = (
"147 407 OFFCURVE",
"75 478 OFFCURVE",
"75 575 CURVE SMOOTH",
"75 614 OFFCURVE",
"97 651 OFFCURVE",
"144 651 CURVE SMOOTH",
"227 651 OFFCURVE",
"289 542 OFFCURVE",
"289 442 CURVE SMOOTH",
"289 425 LINE",
"271 416 OFFCURVE",
"249 407 OFFCURVE",
"220 407 CURVE SMOOTH"
);
}
);
width = 399;
}
);
},
{
color = 10;
glyphname = period;
lastChange = "2020-02-10 12:31:06 +0000";
layers = (
{
layerId = "4253F1EF-A5B5-4BB5-BE01-BA7FF064837C";
paths = (
{
closed = 1;
nodes = (
"89 -10 LINE",
"151 55 LINE",
"151 62 LINE",
"90 126 LINE",
"82 126 LINE",
"20 62 LINE",
"20 55 LINE",
"81 -10 LINE"
);
}
);
width = 171;
}
);
unicode = 002E;
},
{
color = 10;
glyphname = colon;
lastChange = "2020-02-10 12:31:12 +0000";
layers = (
{
layerId = "4253F1EF-A5B5-4BB5-BE01-BA7FF064837C";
paths = (
{
closed = 1;
nodes = (
"89 239 LINE",
"151 304 LINE",
"151 311 LINE",
"90 375 LINE",
"82 375 LINE",
"20 311 LINE",
"20 304 LINE",
"81 239 LINE"
);
},
{
closed = 1;
nodes = (
"89 -10 LINE",
"151 55 LINE",
"151 62 LINE",
"90 126 LINE",
"82 126 LINE",
"20 62 LINE",
"20 55 LINE",
"81 -10 LINE"
);
}
);
width = 171;
}
);
unicode = 003A;
},
{
color = 10;
glyphname = question;
lastChange = "2020-02-10 12:31:30 +0000";
layers = (
{
layerId = "4253F1EF-A5B5-4BB5-BE01-BA7FF064837C";
paths = (
{
closed = 1;
nodes = (
"116 266 LINE",
"186 340 LINE",
"186 348 LINE",
"173 360 OFFCURVE",
"154 373 OFFCURVE",
"154 389 CURVE SMOOTH",
"154 420 OFFCURVE",
"218 465 OFFCURVE",
"218 524 CURVE SMOOTH",
"218 610 LINE SMOOTH",
"218 645 OFFCURVE",
"251 669 OFFCURVE",
"268 683 CURVE",
"268 688 LINE",
"227 730 LINE",
"223 730 LINE",
"191 713 OFFCURVE",
"175 674 OFFCURVE",
"175 645 CURVE SMOOTH",
"175 609 OFFCURVE",
"183 578 OFFCURVE",
"183 520 CURVE SMOOTH",
"183 463 OFFCURVE",
"100 413 OFFCURVE",
"40 347 CURVE",
"40 339 LINE",
"107 266 LINE"
);
},
{
closed = 1;
nodes = (
"125 -10 LINE",
"187 55 LINE",
"187 62 LINE",
"126 126 LINE",
"118 126 LINE",
"56 62 LINE",
"56 55 LINE",
"117 -10 LINE"
);
}
);
width = 278;
}
);
unicode = 003F;
},
{
color = 10;
glyphname = hyphen;
lastChange = "2020-02-10 12:31:37 +0000";
layers = (
{
layerId = "4253F1EF-A5B5-4BB5-BE01-BA7FF064837C";
paths = (
{
closed = 1;
nodes = (
"39 117 LINE",
"300 378 LINE",
"300 481 LINE",
"290 481 LINE",
"30 173 LINE",
"30 117 LINE"
);
}
